<?xml version="1.0" encoding="UTF-8"?>
<svg xmlns="http://www.w3.org/2000/svg" xmlns:xlink="http://www.w3.org/1999/xlink" width="128px" height="128px" viewBox="0 0 128 128" version="1.1">
<g id="surface1">
<path style=" stroke:none;fill-rule:nonzero;fill:rgb(100%,100%,100%);fill-opacity:1;" d="M 115.359375 86.351562 C 115.089844 85.335938 114.65625 84.375 114.074219 83.503906 C 114.199219 83.046875 114.292969 82.578125 114.355469 82.109375 C 114.773438 79.121094 113.734375 76.386719 111.785156 74.269531 C 110.726562 73.113281 109.59375 72.347656 108.390625 71.878906 C 109.179688 68.507812 109.578125 65.058594 109.582031 61.597656 C 109.582031 60.015625 109.492188 58.464844 109.339844 56.941406 C 109.261719 56.179688 109.167969 55.417969 109.058594 54.660156 C 108.714844 52.421875 108.203125 50.214844 107.53125 48.054688 C 107.089844 46.636719 106.582031 45.238281 106.003906 43.867188 C 105.140625 41.839844 104.132812 39.875 102.984375 37.992188 C 102.234375 36.738281 101.414062 35.527344 100.53125 34.359375 C 100.097656 33.773438 99.648438 33.195312 99.179688 32.636719 C 97.789062 30.949219 96.28125 29.363281 94.664062 27.894531 C 94.125 27.398438 93.574219 26.921875 93.003906 26.464844 C 92.445312 25.996094 91.875 25.546875 91.292969 25.109375 C 90.121094 24.238281 88.910156 23.417969 87.660156 22.65625 C 80.773438 18.472656 72.691406 16.074219 64.054688 16.074219 C 38.910156 16.074219 18.527344 36.453125 18.527344 61.597656 C 18.527344 65.105469 18.933594 68.597656 19.738281 72.011719 C 18.660156 72.480469 17.625 73.210938 16.664062 74.265625 C 14.710938 76.382812 13.675781 79.109375 14.089844 82.097656 C 14.152344 82.570312 14.246094 83.039062 14.375 83.503906 C 13.789062 84.375 13.355469 85.335938 13.085938 86.351562 C 12.488281 88.628906 12.683594 90.6875 13.445312 92.488281 C 12.617188 94.84375 12.824219 97.351562 13.90625 99.53125 C 14.691406 101.125 15.8125 102.355469 17.199219 103.457031 C 18.84375 104.765625 20.90625 105.878906 23.390625 106.945312 C 26.359375 108.210938 29.976562 109.398438 31.625 109.835938 C 35.878906 110.9375 39.957031 111.632812 44.089844 111.667969 C 49.976562 111.722656 55.046875 110.339844 58.679688 106.796875 C 60.460938 107.011719 62.257812 107.121094 64.054688 107.121094 C 65.953125 107.117188 67.847656 107 69.734375 106.765625 C 73.355469 110.332031 78.445312 111.726562 84.355469 111.671875 C 88.488281 111.636719 92.566406 110.941406 96.808594 109.839844 C 98.464844 109.402344 102.085938 108.214844 105.050781 106.949219 C 107.539062 105.878906 109.597656 104.769531 111.257812 103.460938 C 112.632812 102.359375 113.753906 101.128906 114.539062 99.535156 C 115.628906 97.355469 115.824219 94.847656 115.007812 92.492188 C 115.761719 90.691406 115.960938 88.628906 115.359375 86.351562 Z M 111.140625 92.335938 C 111.976562 93.921875 112.03125 95.714844 111.292969 97.382812 C 110.175781 99.910156 107.398438 101.902344 102.003906 104.039062 C 98.648438 105.371094 95.578125 106.222656 95.550781 106.230469 C 91.117188 107.378906 87.105469 107.964844 83.632812 107.964844 C 77.878906 107.964844 73.601562 106.378906 70.886719 103.242188 C 66.296875 104.023438 61.609375 104.050781 57.011719 103.320312 C 54.296875 106.402344 50.039062 107.964844 44.339844 107.964844 C 40.863281 107.964844 36.851562 107.378906 32.417969 106.230469 C 32.390625 106.222656 29.320312 105.371094 25.964844 104.039062 C 20.570312 101.902344 17.792969 99.910156 16.675781 97.382812 C 15.9375 95.714844 15.992188 93.921875 16.828125 92.335938 C 16.90625 92.1875 16.988281 92.046875 17.078125 91.90625 C 16.574219 91.15625 16.238281 90.304688 16.089844 89.414062 C 15.941406 88.523438 15.984375 87.609375 16.210938 86.734375 C 16.542969 85.472656 17.230469 84.425781 18.160156 83.671875 C 17.710938 82.933594 17.417969 82.113281 17.296875 81.261719 C 17.027344 79.402344 17.644531 77.550781 19.03125 76.039062 C 20.109375 74.863281 21.636719 74.214844 23.328125 74.214844 L 23.371094 74.214844 C 22.097656 70.128906 21.453125 65.875 21.457031 61.597656 C 21.457031 38.261719 40.375 19.339844 63.714844 19.339844 C 87.050781 19.339844 105.96875 38.257812 105.96875 61.597656 C 105.972656 65.886719 105.324219 70.152344 104.039062 74.246094 C 104.246094 74.226562 104.445312 74.214844 104.640625 74.214844 C 106.332031 74.214844 107.859375 74.863281 108.9375 76.039062 C 110.324219 77.550781 110.941406 79.40625 110.671875 81.261719 C 110.550781 82.117188 110.253906 82.9375 109.808594 83.671875 C 110.738281 84.425781 111.425781 85.476562 111.757812 86.738281 C 111.984375 87.613281 112.027344 88.523438 111.878906 89.414062 C 111.730469 90.304688 111.394531 91.15625 110.890625 91.90625 C 110.980469 92.046875 111.066406 92.1875 111.140625 92.335938 Z M 111.140625 92.335938 "/>
<path style=" stroke:none;fill-rule:nonzero;fill:rgb(100%,61.568627%,0%);fill-opacity:1;" d="M 110.890625 91.90625 C 111.394531 91.15625 111.730469 90.304688 111.878906 89.414062 C 112.027344 88.523438 111.984375 87.613281 111.757812 86.738281 C 111.425781 85.476562 110.738281 84.425781 109.808594 83.671875 C 110.257812 82.9375 110.550781 82.117188 110.671875 81.261719 C 110.941406 79.40625 110.324219 77.550781 108.9375 76.039062 C 107.859375 74.863281 106.332031 74.214844 104.640625 74.214844 C 104.445312 74.214844 104.246094 74.226562 104.039062 74.246094 C 105.320312 70.152344 105.972656 65.886719 105.964844 61.597656 C 105.964844 38.261719 87.046875 19.34375 63.710938 19.34375 C 40.375 19.34375 21.453125 38.257812 21.453125 61.597656 C 21.449219 65.875 22.097656 70.128906 23.371094 74.214844 L 23.324219 74.214844 C 21.636719 74.214844 20.109375 74.863281 19.03125 76.039062 C 17.644531 77.550781 17.027344 79.40625 17.296875 81.261719 C 17.417969 82.117188 17.710938 82.9375 18.160156 83.671875 C 17.230469 84.425781 16.542969 85.476562 16.210938 86.738281 C 15.980469 87.609375 15.941406 88.523438 16.089844 89.414062 C 16.238281 90.304688 16.574219 91.15625 17.074219 91.90625 C 16.988281 92.046875 16.90625 92.191406 16.828125 92.339844 C 15.992188 93.921875 15.9375 95.714844 16.675781 97.382812 C 17.792969 99.910156 20.570312 101.902344 25.964844 104.042969 C 29.316406 105.371094 32.390625 106.222656 32.417969 106.230469 C 36.851562 107.382812 40.863281 107.964844 44.335938 107.964844 C 50.039062 107.964844 54.296875 106.40625 57.011719 103.324219 C 61.609375 104.054688 66.296875 104.027344 70.886719 103.246094 C 73.601562 106.378906 77.878906 107.964844 83.632812 107.964844 C 87.105469 107.964844 91.117188 107.382812 95.550781 106.230469 C 95.578125 106.222656 98.648438 105.371094 102.003906 104.042969 C 107.398438 101.902344 110.175781 99.910156 111.292969 97.382812 C 112.03125 95.714844 111.976562 93.921875 111.140625 92.339844 C 111.066406 92.191406 110.980469 92.046875 110.890625 91.90625 Z M 55.070312 98.5 C 54.835938 98.90625 54.585938 99.308594 54.316406 99.695312 C 53.613281 100.722656 52.691406 101.511719 51.617188 102.09375 C 49.570312 103.210938 46.972656 103.601562 44.335938 103.601562 C 40.171875 103.601562 35.902344 102.628906 33.511719 102.007812 C 33.394531 101.976562 18.84375 97.867188 20.6875 94.371094 C 20.996094 93.78125 21.507812 93.546875 22.148438 93.546875 C 24.742188 93.546875 29.464844 97.40625 31.496094 97.40625 C 31.949219 97.40625 32.269531 97.214844 32.398438 96.742188 C 33.261719 93.640625 19.25 92.339844 20.433594 87.847656 C 20.640625 87.050781 21.203125 86.726562 22 86.726562 C 25.429688 86.726562 33.125 92.757812 34.734375 92.757812 C 34.855469 92.757812 34.945312 92.722656 34.992188 92.644531 C 35 92.632812 35.007812 92.621094 35.015625 92.609375 C 35.769531 91.363281 35.335938 90.457031 30.160156 87.285156 L 29.664062 86.984375 C 23.96875 83.535156 19.96875 81.460938 22.242188 78.988281 C 22.503906 78.703125 22.875 78.574219 23.328125 78.574219 C 23.859375 78.574219 24.507812 78.753906 25.21875 79.054688 C 28.226562 80.324219 32.398438 83.78125 34.136719 85.289062 C 34.410156 85.527344 34.683594 85.769531 34.953125 86.011719 C 34.953125 86.011719 37.160156 88.304688 38.492188 88.304688 C 38.800781 88.304688 39.058594 88.183594 39.238281 87.882812 C 40.183594 86.289062 30.453125 78.917969 29.90625 75.878906 C 29.535156 73.816406 30.167969 72.773438 31.335938 72.773438 C 31.894531 72.773438 32.574219 73.011719 33.324219 73.484375 C 35.648438 74.960938 40.136719 82.675781 41.78125 85.675781 C 42.332031 86.679688 43.269531 87.105469 44.117188 87.105469 C 45.800781 87.105469 47.113281 85.433594 44.273438 83.3125 C 40 80.113281 41.5 74.890625 43.539062 74.570312 C 43.625 74.554688 43.714844 74.546875 43.800781 74.546875 C 45.65625 74.546875 46.472656 77.742188 46.472656 77.742188 C 46.472656 77.742188 48.871094 83.761719 52.988281 87.875 C 56.722656 91.609375 57.246094 94.675781 55.070312 98.5 Z M 68.382812 99.203125 L 68.167969 99.230469 L 67.804688 99.269531 C 67.613281 99.289062 67.421875 99.308594 67.230469 99.328125 L 67.042969 99.34375 L 66.871094 99.359375 L 66.628906 99.378906 L 66.359375 99.398438 L 66.089844 99.414062 L 66.03125 99.417969 C 65.960938 99.421875 65.890625 99.425781 65.820312 99.429688 L 65.730469 99.4375 C 65.648438 99.441406 65.566406 99.445312 65.480469 99.449219 L 65.191406 99.460938 L 64.925781 99.46875 L 64.75 99.472656 L 64.660156 99.472656 C 64.605469 99.472656 64.550781 99.476562 64.496094 99.476562 L 64.410156 99.476562 C 64.355469 99.476562 64.300781 99.476562 64.246094 99.480469 L 64.023438 99.484375 L 63.710938 99.484375 C 63.464844 99.484375 63.21875 99.480469 62.972656 99.476562 L 62.777344 99.472656 C 62.71875 99.472656 62.664062 99.46875 62.609375 99.46875 L 62.398438 99.460938 L 62.136719 99.449219 L 61.902344 99.441406 L 61.84375 99.4375 L 61.617188 99.425781 C 61.554688 99.421875 61.496094 99.421875 61.433594 99.414062 L 61.289062 99.40625 C 61.105469 99.394531 60.925781 99.382812 60.742188 99.367188 L 60.554688 99.351562 C 60.472656 99.347656 60.394531 99.339844 60.3125 99.332031 C 60.21875 99.324219 60.128906 99.316406 60.035156 99.308594 C 59.878906 99.292969 59.71875 99.277344 59.5625 99.257812 L 59.554688 99.257812 C 61.839844 94.160156 60.6875 89.402344 56.070312 84.789062 C 53.039062 81.761719 51.027344 77.296875 50.609375 76.316406 C 49.761719 73.414062 47.523438 70.1875 43.804688 70.1875 C 43.488281 70.1875 43.175781 70.210938 42.863281 70.261719 C 41.234375 70.519531 39.8125 71.457031 38.796875 72.867188 C 37.699219 71.5 36.632812 70.414062 35.664062 69.800781 C 34.210938 68.878906 32.757812 68.410156 31.34375 68.410156 C 29.578125 68.410156 28 69.136719 26.902344 70.453125 L 26.871094 70.484375 C 26.851562 70.398438 26.832031 70.3125 26.8125 70.226562 L 26.808594 70.214844 C 26.597656 69.320312 26.425781 68.417969 26.28125 67.507812 C 26.28125 67.503906 26.28125 67.496094 26.277344 67.488281 C 26.269531 67.421875 26.257812 67.351562 26.246094 67.285156 C 26.214844 67.082031 26.1875 66.878906 26.160156 66.675781 C 26.148438 66.582031 26.136719 66.488281 26.125 66.398438 L 26.089844 66.117188 C 26.078125 66.027344 26.070312 65.941406 26.058594 65.855469 L 26.058594 65.832031 C 26.015625 65.472656 25.984375 65.113281 25.953125 64.75 L 25.941406 64.613281 L 25.925781 64.378906 C 25.917969 64.3125 25.914062 64.246094 25.910156 64.183594 C 25.910156 64.167969 25.90625 64.152344 25.90625 64.136719 C 25.894531 63.957031 25.882812 63.773438 25.875 63.59375 C 25.871094 63.5 25.863281 63.40625 25.859375 63.308594 L 25.851562 63.0625 L 25.847656 62.988281 L 25.839844 62.757812 L 25.835938 62.5625 C 25.835938 62.488281 25.832031 62.410156 25.832031 62.332031 C 25.828125 62.253906 25.828125 62.167969 25.828125 62.085938 C 25.824219 62.003906 25.828125 61.925781 25.824219 61.84375 C 25.820312 61.761719 25.824219 61.679688 25.824219 61.597656 C 25.824219 40.671875 42.789062 23.707031 63.71875 23.707031 C 84.644531 23.707031 101.609375 40.671875 101.609375 61.597656 L 101.609375 62.085938 C 101.609375 62.167969 101.609375 62.25 101.605469 62.332031 C 101.605469 62.398438 101.605469 62.464844 101.601562 62.535156 C 101.601562 62.59375 101.597656 62.65625 101.597656 62.710938 C 101.597656 62.789062 101.59375 62.867188 101.589844 62.941406 L 101.589844 62.949219 L 101.578125 63.214844 C 101.578125 63.289062 101.574219 63.367188 101.570312 63.445312 L 101.566406 63.5 L 101.554688 63.75 C 101.523438 64.28125 101.484375 64.8125 101.433594 65.339844 L 101.433594 65.347656 C 101.425781 65.433594 101.414062 65.523438 101.40625 65.609375 L 101.382812 65.816406 L 101.339844 66.214844 L 101.3125 66.421875 L 101.28125 66.660156 C 101.269531 66.746094 101.257812 66.835938 101.246094 66.921875 C 101.234375 67.019531 101.21875 67.113281 101.203125 67.210938 L 101.171875 67.441406 L 101.128906 67.703125 C 101.113281 67.789062 101.101562 67.875 101.085938 67.960938 C 101.066406 68.046875 101.054688 68.132812 101.039062 68.21875 C 101.007812 68.390625 100.976562 68.5625 100.945312 68.734375 C 100.894531 68.992188 100.84375 69.246094 100.789062 69.503906 L 100.734375 69.757812 C 100.71875 69.839844 100.699219 69.925781 100.679688 70.011719 C 99.613281 68.972656 98.199219 68.410156 96.640625 68.410156 C 95.226562 68.410156 93.773438 68.875 92.320312 69.800781 C 91.355469 70.410156 90.289062 71.496094 89.191406 72.863281 C 88.171875 71.453125 86.75 70.515625 85.121094 70.257812 C 84.808594 70.210938 84.496094 70.183594 84.183594 70.183594 C 80.460938 70.183594 78.226562 73.410156 77.378906 76.3125 C 76.957031 77.292969 74.945312 81.757812 71.914062 84.789062 C 67.296875 89.386719 66.132812 94.128906 68.382812 99.203125 Z M 107.503906 89 L 107.488281 89.042969 C 107.449219 89.144531 107.40625 89.242188 107.355469 89.335938 C 107.320312 89.40625 107.277344 89.476562 107.234375 89.539062 C 107.152344 89.664062 107.058594 89.785156 106.960938 89.898438 C 106.9375 89.921875 106.914062 89.949219 106.890625 89.972656 C 106.851562 90.011719 106.816406 90.050781 106.78125 90.085938 C 106.105469 90.753906 105.082031 91.339844 103.921875 91.875 C 103.789062 91.933594 103.65625 91.996094 103.519531 92.054688 L 103.386719 92.113281 C 103.296875 92.152344 103.207031 92.191406 103.113281 92.230469 C 103.023438 92.269531 102.929688 92.308594 102.839844 92.347656 L 102.558594 92.460938 C 101.90625 92.730469 101.238281 92.988281 100.585938 93.238281 L 100.03125 93.457031 C 99.847656 93.527344 99.667969 93.597656 99.488281 93.671875 L 99.222656 93.777344 L 98.964844 93.882812 L 98.835938 93.9375 C 98.75 93.972656 98.664062 94.007812 98.582031 94.042969 C 96.664062 94.867188 95.285156 95.707031 95.574219 96.746094 C 95.582031 96.773438 95.589844 96.800781 95.601562 96.828125 C 95.625 96.90625 95.660156 96.980469 95.707031 97.046875 C 95.734375 97.089844 95.761719 97.125 95.796875 97.160156 C 96.136719 97.515625 96.757812 97.460938 97.539062 97.179688 C 97.648438 97.136719 97.757812 97.097656 97.867188 97.050781 L 97.9375 97.023438 C 98.113281 96.949219 98.304688 96.863281 98.496094 96.769531 C 98.546875 96.746094 98.59375 96.726562 98.644531 96.699219 C 99.601562 96.234375 100.6875 95.601562 101.761719 95.027344 C 102.191406 94.796875 102.628906 94.574219 103.070312 94.367188 C 104.089844 93.886719 105.046875 93.546875 105.816406 93.546875 C 106.179688 93.546875 106.5 93.621094 106.765625 93.789062 L 106.808594 93.820312 C 106.976562 93.9375 107.117188 94.089844 107.21875 94.265625 C 107.242188 94.296875 107.261719 94.332031 107.28125 94.371094 C 107.660156 95.09375 107.34375 95.839844 106.597656 96.574219 C 105.882812 97.277344 104.769531 97.96875 103.503906 98.609375 C 103.410156 98.65625 103.316406 98.703125 103.21875 98.75 C 99.453125 100.597656 94.523438 101.992188 94.457031 102.007812 C 93.140625 102.347656 91.261719 102.796875 89.144531 103.128906 L 88.832031 103.179688 L 88.78125 103.1875 C 88.542969 103.222656 88.308594 103.257812 88.070312 103.285156 C 87.828125 103.320312 87.582031 103.347656 87.339844 103.375 L 87.292969 103.382812 C 86.402344 103.484375 85.507812 103.550781 84.613281 103.585938 L 84.601562 103.585938 C 84.277344 103.597656 83.953125 103.601562 83.628906 103.601562 L 83.257812 103.601562 C 82.761719 103.59375 82.269531 103.574219 81.777344 103.535156 C 81.765625 103.535156 81.753906 103.535156 81.742188 103.53125 C 81.566406 103.519531 81.386719 103.503906 81.210938 103.484375 C 81.03125 103.464844 80.847656 103.441406 80.667969 103.417969 C 80.546875 103.402344 80.429688 103.382812 80.308594 103.363281 C 80.1875 103.34375 80.066406 103.324219 79.945312 103.300781 L 79.78125 103.273438 L 79.769531 103.269531 C 79.597656 103.234375 79.421875 103.199219 79.25 103.160156 C 79.152344 103.136719 79.050781 103.113281 78.953125 103.089844 L 78.894531 103.074219 C 78.84375 103.0625 78.796875 103.046875 78.75 103.035156 L 78.722656 103.027344 L 78.570312 102.984375 C 78.511719 102.96875 78.457031 102.949219 78.402344 102.933594 L 78.382812 102.929688 L 78.234375 102.882812 C 78.179688 102.867188 78.125 102.847656 78.070312 102.832031 L 77.9375 102.785156 L 77.839844 102.753906 C 77.742188 102.71875 77.648438 102.683594 77.554688 102.648438 L 77.464844 102.613281 L 77.394531 102.585938 C 77.25 102.527344 77.109375 102.46875 76.96875 102.40625 L 76.878906 102.359375 L 76.863281 102.351562 C 76.828125 102.335938 76.796875 102.320312 76.765625 102.308594 C 76.699219 102.277344 76.636719 102.246094 76.570312 102.214844 L 76.550781 102.203125 L 76.460938 102.15625 C 76.296875 102.070312 76.136719 101.976562 75.980469 101.882812 L 75.894531 101.828125 C 75.851562 101.800781 75.808594 101.773438 75.765625 101.746094 L 75.652344 101.671875 L 75.535156 101.589844 L 75.460938 101.539062 C 75.386719 101.484375 75.3125 101.429688 75.238281 101.371094 L 75.121094 101.28125 C 75.074219 101.242188 75.027344 101.207031 74.984375 101.167969 C 74.945312 101.136719 74.90625 101.101562 74.871094 101.070312 L 74.867188 101.066406 C 74.828125 101.03125 74.785156 100.996094 74.746094 100.960938 C 74.707031 100.925781 74.667969 100.886719 74.632812 100.851562 L 74.628906 100.847656 C 74.585938 100.808594 74.546875 100.769531 74.507812 100.730469 C 74.472656 100.691406 74.429688 100.652344 74.394531 100.613281 C 74.355469 100.574219 74.316406 100.535156 74.28125 100.492188 C 74.242188 100.449219 74.210938 100.414062 74.175781 100.371094 L 74.164062 100.359375 C 74.128906 100.320312 74.097656 100.28125 74.0625 100.242188 C 73.992188 100.15625 73.921875 100.066406 73.855469 99.976562 C 73.789062 99.886719 73.722656 99.796875 73.65625 99.703125 L 73.59375 99.609375 C 73.511719 99.492188 73.433594 99.371094 73.355469 99.246094 C 73.296875 99.15625 73.242188 99.070312 73.1875 98.976562 C 73.152344 98.921875 73.117188 98.863281 73.082031 98.808594 L 73.070312 98.785156 C 73.035156 98.730469 73.003906 98.675781 72.972656 98.621094 C 72.957031 98.59375 72.9375 98.5625 72.921875 98.53125 C 72.90625 98.503906 72.886719 98.46875 72.871094 98.4375 L 72.839844 98.390625 L 72.824219 98.359375 C 72.789062 98.296875 72.757812 98.238281 72.726562 98.175781 C 72.710938 98.148438 72.695312 98.121094 72.679688 98.097656 L 72.636719 98.007812 L 72.589844 97.925781 C 72.476562 97.699219 72.371094 97.472656 72.273438 97.238281 L 72.234375 97.15625 C 72.214844 97.097656 72.191406 97.042969 72.167969 96.988281 C 72.15625 96.960938 72.148438 96.933594 72.136719 96.90625 C 72.082031 96.769531 72.035156 96.628906 71.988281 96.488281 C 71.972656 96.4375 71.953125 96.386719 71.941406 96.335938 C 71.902344 96.222656 71.871094 96.109375 71.84375 95.992188 C 71.808594 95.859375 71.777344 95.722656 71.75 95.585938 C 71.742188 95.558594 71.738281 95.53125 71.734375 95.507812 C 71.707031 95.371094 71.6875 95.238281 71.671875 95.101562 C 71.664062 95.078125 71.664062 95.050781 71.660156 95.023438 L 71.652344 94.941406 C 71.640625 94.835938 71.632812 94.730469 71.628906 94.625 C 71.628906 94.597656 71.625 94.570312 71.625 94.542969 C 71.621094 94.492188 71.621094 94.4375 71.621094 94.382812 C 71.589844 92.246094 72.671875 90.195312 74.984375 87.882812 C 79.101562 83.769531 81.5 77.75 81.5 77.75 C 81.5 77.75 81.5625 77.496094 81.695312 77.132812 C 81.714844 77.085938 81.734375 77.03125 81.757812 76.976562 C 81.835938 76.773438 81.921875 76.574219 82.019531 76.378906 L 82.039062 76.339844 C 82.121094 76.175781 82.214844 76.011719 82.3125 75.855469 C 82.335938 75.820312 82.355469 75.785156 82.382812 75.746094 C 82.457031 75.636719 82.535156 75.53125 82.613281 75.429688 C 82.660156 75.375 82.707031 75.320312 82.757812 75.265625 C 82.777344 75.246094 82.796875 75.222656 82.816406 75.203125 C 83.054688 74.957031 83.328125 74.757812 83.636719 74.648438 L 83.675781 74.636719 C 83.699219 74.628906 83.726562 74.621094 83.753906 74.613281 C 83.78125 74.605469 83.8125 74.597656 83.84375 74.589844 L 83.859375 74.589844 C 83.925781 74.574219 83.992188 74.566406 84.058594 74.5625 L 84.0625 74.5625 C 84.097656 74.5625 84.132812 74.558594 84.167969 74.558594 C 84.210938 74.558594 84.253906 74.558594 84.296875 74.5625 C 84.34375 74.566406 84.386719 74.570312 84.429688 74.578125 C 84.800781 74.636719 85.15625 74.859375 85.460938 75.199219 C 85.574219 75.328125 85.679688 75.46875 85.769531 75.617188 C 85.828125 75.714844 85.886719 75.816406 85.941406 75.921875 C 85.960938 75.96875 85.980469 76.007812 86.003906 76.050781 C 86.054688 76.164062 86.101562 76.28125 86.140625 76.398438 C 86.238281 76.671875 86.3125 76.957031 86.363281 77.242188 C 86.402344 77.496094 86.429688 77.75 86.4375 78.007812 C 86.441406 78.144531 86.441406 78.28125 86.4375 78.421875 C 86.410156 79.070312 86.277344 79.710938 86.042969 80.316406 C 86.023438 80.371094 86 80.429688 85.976562 80.484375 C 85.929688 80.597656 85.878906 80.707031 85.824219 80.816406 C 85.785156 80.898438 85.742188 80.984375 85.695312 81.066406 C 85.664062 81.121094 85.632812 81.175781 85.601562 81.230469 C 85.523438 81.367188 85.433594 81.503906 85.34375 81.636719 L 85.285156 81.71875 C 85.066406 82.027344 84.820312 82.316406 84.550781 82.582031 C 84.285156 82.847656 84 83.09375 83.699219 83.320312 C 83.398438 83.542969 83.117188 83.789062 82.855469 84.058594 C 82.105469 84.84375 81.929688 85.542969 82.097656 86.070312 C 82.125 86.152344 82.160156 86.234375 82.203125 86.308594 C 82.253906 86.394531 82.3125 86.476562 82.382812 86.546875 L 82.410156 86.574219 L 82.433594 86.601562 C 82.460938 86.628906 82.492188 86.65625 82.523438 86.679688 L 82.550781 86.703125 C 82.625 86.757812 82.699219 86.808594 82.78125 86.851562 C 82.804688 86.867188 82.824219 86.878906 82.851562 86.890625 C 82.941406 86.933594 83.027344 86.96875 83.121094 87 C 83.148438 87.007812 83.171875 87.015625 83.199219 87.023438 L 83.277344 87.042969 L 83.3125 87.054688 L 83.398438 87.070312 L 83.4375 87.078125 C 83.464844 87.082031 83.496094 87.085938 83.527344 87.089844 L 83.554688 87.09375 L 83.605469 87.101562 L 83.636719 87.101562 L 83.691406 87.105469 L 83.722656 87.105469 L 83.777344 87.109375 L 83.949219 87.109375 L 84 87.105469 L 84.054688 87.101562 L 84.125 87.097656 L 84.191406 87.089844 C 84.207031 87.089844 84.222656 87.085938 84.234375 87.082031 C 84.4375 87.054688 84.632812 87 84.820312 86.925781 L 84.898438 86.890625 C 84.945312 86.871094 84.988281 86.851562 85.03125 86.828125 C 85.117188 86.785156 85.203125 86.734375 85.285156 86.679688 C 85.398438 86.605469 85.507812 86.523438 85.609375 86.429688 C 85.632812 86.40625 85.65625 86.382812 85.679688 86.363281 C 85.691406 86.351562 85.703125 86.339844 85.710938 86.328125 C 85.734375 86.304688 85.757812 86.285156 85.777344 86.261719 C 85.9375 86.085938 86.078125 85.890625 86.191406 85.679688 C 87.171875 83.902344 88.195312 82.148438 89.265625 80.425781 L 89.414062 80.1875 L 89.5625 79.953125 C 89.636719 79.835938 89.710938 79.714844 89.785156 79.597656 L 89.859375 79.484375 C 90.109375 79.09375 90.363281 78.703125 90.621094 78.320312 L 90.773438 78.09375 C 91.078125 77.640625 91.382812 77.199219 91.6875 76.777344 L 91.835938 76.570312 C 92.164062 76.117188 92.507812 75.675781 92.863281 75.242188 L 93.003906 75.070312 C 93.027344 75.042969 93.050781 75.015625 93.074219 74.988281 C 93.121094 74.933594 93.167969 74.878906 93.214844 74.828125 C 93.238281 74.800781 93.257812 74.777344 93.28125 74.75 L 93.417969 74.597656 L 93.484375 74.527344 C 93.550781 74.453125 93.617188 74.382812 93.683594 74.316406 C 93.726562 74.273438 93.769531 74.226562 93.8125 74.183594 C 94.066406 73.925781 94.34375 73.695312 94.648438 73.492188 L 94.714844 73.449219 C 94.785156 73.402344 94.851562 73.359375 94.925781 73.324219 C 96.105469 72.652344 97.085938 72.601562 97.648438 73.164062 C 97.988281 73.507812 98.179688 74.070312 98.167969 74.859375 C 98.167969 74.894531 98.167969 74.929688 98.164062 74.964844 L 98.164062 75.003906 C 98.164062 75.039062 98.160156 75.074219 98.160156 75.113281 C 98.160156 75.15625 98.152344 75.199219 98.148438 75.246094 C 98.144531 75.289062 98.140625 75.324219 98.136719 75.363281 C 98.136719 75.375 98.136719 75.386719 98.132812 75.398438 C 98.132812 75.433594 98.125 75.46875 98.121094 75.503906 C 98.121094 75.515625 98.121094 75.527344 98.117188 75.535156 C 98.113281 75.585938 98.105469 75.632812 98.097656 75.679688 C 98.089844 75.722656 98.085938 75.765625 98.074219 75.808594 L 98.0625 75.882812 C 98.050781 75.953125 98.035156 76.023438 98.011719 76.09375 C 97.972656 76.222656 97.925781 76.351562 97.871094 76.472656 C 97.792969 76.640625 97.707031 76.804688 97.613281 76.964844 C 97.5625 77.054688 97.507812 77.144531 97.453125 77.230469 C 97.398438 77.320312 97.335938 77.410156 97.273438 77.5 C 97.117188 77.726562 96.953125 77.949219 96.78125 78.164062 L 96.703125 78.261719 C 96.425781 78.609375 96.140625 78.949219 95.84375 79.28125 L 95.75 79.386719 C 95.625 79.527344 95.496094 79.667969 95.363281 79.808594 L 95.265625 79.917969 C 95.199219 79.988281 95.132812 80.058594 95.066406 80.132812 C 95 80.203125 94.933594 80.277344 94.863281 80.347656 L 94.65625 80.566406 L 94.449219 80.78125 L 94.238281 81 C 94.097656 81.148438 93.957031 81.292969 93.8125 81.4375 C 91.785156 83.519531 89.652344 85.589844 88.925781 86.882812 C 88.878906 86.96875 88.835938 87.054688 88.796875 87.140625 C 88.695312 87.378906 88.652344 87.578125 88.679688 87.742188 C 88.691406 87.792969 88.707031 87.84375 88.734375 87.890625 C 88.777344 87.964844 88.824219 88.027344 88.882812 88.085938 C 88.910156 88.113281 88.9375 88.136719 88.96875 88.15625 C 89.117188 88.265625 89.296875 88.320312 89.476562 88.3125 L 89.535156 88.3125 L 89.59375 88.308594 L 89.652344 88.300781 L 89.699219 88.296875 C 89.707031 88.292969 89.714844 88.292969 89.722656 88.292969 L 89.765625 88.28125 L 89.777344 88.28125 L 89.828125 88.269531 L 89.84375 88.265625 C 89.863281 88.261719 89.878906 88.257812 89.894531 88.25 C 89.914062 88.246094 89.9375 88.238281 89.957031 88.234375 C 90.046875 88.207031 90.132812 88.175781 90.21875 88.140625 C 90.261719 88.121094 90.304688 88.101562 90.347656 88.082031 C 90.371094 88.070312 90.394531 88.058594 90.414062 88.050781 L 90.480469 88.015625 C 90.640625 87.933594 90.796875 87.84375 90.949219 87.746094 L 91.015625 87.699219 C 91.039062 87.6875 91.058594 87.671875 91.082031 87.65625 L 91.148438 87.613281 L 91.183594 87.585938 L 91.28125 87.519531 C 91.371094 87.457031 91.453125 87.394531 91.539062 87.328125 L 91.546875 87.324219 L 91.679688 87.21875 C 91.863281 87.074219 92.035156 86.929688 92.195312 86.792969 L 92.300781 86.699219 L 92.308594 86.691406 L 92.363281 86.640625 C 92.492188 86.527344 92.609375 86.417969 92.703125 86.328125 L 92.742188 86.289062 C 92.777344 86.257812 92.808594 86.226562 92.839844 86.203125 L 92.894531 86.144531 L 93.035156 86.003906 L 93.058594 85.984375 L 93.066406 85.976562 L 93.085938 85.960938 L 93.1875 85.871094 L 93.242188 85.820312 C 93.273438 85.792969 93.304688 85.765625 93.332031 85.738281 L 93.402344 85.679688 C 93.414062 85.667969 93.425781 85.65625 93.4375 85.648438 L 93.613281 85.492188 L 93.671875 85.445312 C 93.886719 85.253906 94.152344 85.027344 94.457031 84.769531 L 94.582031 84.664062 L 94.785156 84.492188 L 94.996094 84.316406 C 95.273438 84.085938 95.566406 83.84375 95.882812 83.59375 L 96.085938 83.425781 C 96.261719 83.289062 96.441406 83.144531 96.621094 83.003906 C 96.695312 82.945312 96.769531 82.886719 96.847656 82.832031 C 97.03125 82.6875 97.21875 82.542969 97.410156 82.402344 C 97.835938 82.078125 98.28125 81.753906 98.726562 81.4375 L 98.921875 81.304688 C 99.054688 81.210938 99.1875 81.117188 99.324219 81.027344 L 99.445312 80.945312 C 99.683594 80.78125 99.925781 80.625 100.171875 80.46875 L 100.292969 80.394531 L 100.414062 80.316406 C 100.535156 80.242188 100.65625 80.167969 100.773438 80.097656 L 100.894531 80.027344 L 101.132812 79.886719 L 101.367188 79.753906 L 101.414062 79.726562 L 101.601562 79.625 C 101.675781 79.582031 101.753906 79.542969 101.832031 79.503906 L 102.058594 79.386719 C 102.097656 79.371094 102.136719 79.351562 102.171875 79.332031 C 102.425781 79.207031 102.679688 79.09375 102.941406 78.988281 C 103.011719 78.960938 103.082031 78.933594 103.148438 78.910156 L 103.355469 78.835938 C 103.417969 78.816406 103.476562 78.796875 103.535156 78.78125 L 103.554688 78.773438 C 103.585938 78.761719 103.617188 78.753906 103.648438 78.746094 L 103.65625 78.742188 C 103.71875 78.726562 103.78125 78.710938 103.84375 78.695312 L 103.851562 78.695312 C 104.027344 78.652344 104.207031 78.621094 104.386719 78.601562 C 104.472656 78.59375 104.554688 78.589844 104.640625 78.589844 L 104.679688 78.589844 C 104.738281 78.589844 104.792969 78.59375 104.84375 78.597656 C 104.871094 78.597656 104.894531 78.605469 104.917969 78.609375 L 104.929688 78.609375 C 104.953125 78.609375 104.976562 78.613281 105 78.621094 C 105.023438 78.625 105.046875 78.628906 105.070312 78.632812 L 105.078125 78.632812 C 105.101562 78.636719 105.121094 78.644531 105.148438 78.652344 C 105.273438 78.6875 105.394531 78.742188 105.507812 78.8125 C 105.558594 78.847656 105.613281 78.890625 105.660156 78.933594 L 105.671875 78.945312 C 105.679688 78.953125 105.691406 78.964844 105.699219 78.972656 L 105.722656 79 C 105.921875 79.210938 106.089844 79.449219 106.214844 79.714844 L 106.234375 79.757812 C 106.277344 79.859375 106.308594 79.960938 106.332031 80.066406 C 106.402344 80.390625 106.375 80.726562 106.253906 81.035156 C 106.207031 81.160156 106.152344 81.277344 106.085938 81.390625 C 105.929688 81.65625 105.746094 81.898438 105.535156 82.117188 L 105.492188 82.164062 C 105.425781 82.234375 105.355469 82.304688 105.28125 82.375 C 105.25 82.40625 105.21875 82.4375 105.183594 82.46875 L 105.082031 82.566406 L 105.027344 82.613281 C 104.898438 82.726562 104.765625 82.839844 104.632812 82.945312 C 104.550781 83.011719 104.46875 83.078125 104.386719 83.140625 C 104.09375 83.363281 103.792969 83.582031 103.488281 83.789062 C 103.304688 83.914062 103.121094 84.039062 102.933594 84.160156 C 102.476562 84.460938 102.011719 84.757812 101.542969 85.042969 C 100.558594 85.648438 99.46875 86.292969 98.304688 86.996094 L 98.003906 87.179688 C 97.675781 87.382812 97.363281 87.574219 97.070312 87.757812 L 96.921875 87.847656 L 96.644531 88.027344 C 96.457031 88.144531 96.273438 88.265625 96.089844 88.386719 L 95.941406 88.484375 C 95.867188 88.53125 95.796875 88.578125 95.722656 88.625 L 95.652344 88.671875 L 95.4375 88.816406 L 95.324219 88.894531 L 95.191406 88.988281 L 95.066406 89.074219 C 94.855469 89.222656 94.664062 89.363281 94.484375 89.496094 L 94.417969 89.546875 C 94.3125 89.625 94.207031 89.707031 94.105469 89.789062 C 93.949219 89.914062 93.808594 90.035156 93.683594 90.148438 L 93.621094 90.203125 C 93.585938 90.238281 93.550781 90.269531 93.515625 90.300781 C 93.496094 90.324219 93.472656 90.347656 93.449219 90.367188 L 93.417969 90.398438 C 93.34375 90.472656 93.277344 90.546875 93.207031 90.621094 L 93.175781 90.660156 C 93.101562 90.742188 93.039062 90.824219 92.980469 90.90625 L 92.957031 90.941406 C 92.914062 91.003906 92.871094 91.070312 92.835938 91.136719 C 92.824219 91.15625 92.816406 91.171875 92.808594 91.191406 L 92.785156 91.242188 L 92.769531 91.277344 L 92.757812 91.300781 L 92.75 91.324219 L 92.738281 91.355469 C 92.707031 91.441406 92.683594 91.527344 92.671875 91.617188 L 92.667969 91.648438 L 92.664062 91.675781 L 92.664062 91.835938 C 92.664062 91.847656 92.664062 91.859375 92.667969 91.875 L 92.671875 91.898438 C 92.671875 91.910156 92.675781 91.925781 92.675781 91.9375 C 92.679688 91.949219 92.683594 91.972656 92.6875 91.992188 L 92.6875 91.996094 C 92.691406 92.011719 92.691406 92.03125 92.699219 92.046875 C 92.703125 92.066406 92.707031 92.085938 92.710938 92.101562 C 92.722656 92.136719 92.734375 92.171875 92.746094 92.207031 C 92.753906 92.230469 92.761719 92.25 92.769531 92.269531 C 92.769531 92.273438 92.773438 92.277344 92.773438 92.28125 L 92.792969 92.324219 L 92.816406 92.378906 C 92.84375 92.4375 92.875 92.492188 92.90625 92.546875 L 92.941406 92.605469 L 92.972656 92.660156 C 92.980469 92.671875 92.988281 92.679688 92.992188 92.6875 L 93.015625 92.710938 L 93.03125 92.722656 C 93.050781 92.734375 93.070312 92.746094 93.089844 92.753906 C 93.101562 92.757812 93.113281 92.757812 93.128906 92.761719 C 93.414062 92.828125 94.007812 92.589844 94.796875 92.171875 C 94.839844 92.148438 94.890625 92.125 94.9375 92.097656 L 95.175781 91.96875 L 95.292969 91.902344 C 95.378906 91.859375 95.464844 91.808594 95.550781 91.757812 L 95.707031 91.667969 C 96.75 91.070312 97.992188 90.296875 99.28125 89.546875 C 99.402344 89.476562 99.523438 89.40625 99.640625 89.335938 L 99.886719 89.179688 C 100.167969 89.019531 100.449219 88.859375 100.734375 88.703125 C 101.09375 88.503906 101.453125 88.3125 101.820312 88.128906 L 102.058594 88.007812 C 102.214844 87.929688 102.371094 87.851562 102.527344 87.777344 C 102.824219 87.636719 103.128906 87.5 103.433594 87.375 L 103.601562 87.304688 L 103.621094 87.296875 C 104.507812 86.945312 105.3125 86.730469 105.964844 86.730469 C 106.105469 86.726562 106.246094 86.738281 106.382812 86.765625 L 106.390625 86.765625 C 106.433594 86.773438 106.472656 86.78125 106.515625 86.789062 L 106.523438 86.789062 C 106.628906 86.816406 106.734375 86.855469 106.832031 86.90625 C 106.96875 86.976562 107.09375 87.070312 107.195312 87.183594 C 107.246094 87.238281 107.285156 87.296875 107.324219 87.355469 C 107.394531 87.464844 107.449219 87.582031 107.488281 87.703125 C 107.503906 87.75 107.519531 87.796875 107.535156 87.847656 C 107.640625 88.226562 107.628906 88.625 107.503906 89 Z M 107.503906 89 "/>
<path style=" stroke:none;fill-rule:evenodd;fill:rgb(100%,82.352941%,11.764706%);fill-opacity:1;" d="M 101.605469 61.84375 L 101.605469 61.597656 C 101.605469 40.671875 84.644531 23.707031 63.71875 23.707031 C 42.789062 23.707031 25.824219 40.671875 25.824219 61.597656 L 25.824219 61.679688 C 25.824219 61.734375 25.824219 61.789062 25.824219 61.84375 C 25.828125 61.925781 25.828125 62.003906 25.828125 62.085938 L 25.828125 62.265625 L 25.832031 62.332031 C 25.832031 62.363281 25.832031 62.390625 25.832031 62.421875 C 25.835938 62.46875 25.835938 62.515625 25.835938 62.5625 L 25.839844 62.757812 L 25.847656 62.988281 L 25.851562 63.0625 L 25.859375 63.296875 L 25.859375 63.308594 C 25.863281 63.402344 25.871094 63.496094 25.875 63.585938 L 25.875 63.59375 C 25.878906 63.6875 25.886719 63.78125 25.890625 63.875 C 25.894531 63.964844 25.902344 64.050781 25.90625 64.136719 L 25.910156 64.152344 C 25.914062 64.226562 25.917969 64.300781 25.921875 64.378906 L 25.925781 64.398438 L 25.941406 64.613281 L 25.941406 64.628906 C 25.945312 64.667969 25.949219 64.710938 25.953125 64.75 C 25.984375 65.113281 26.019531 65.472656 26.058594 65.832031 L 26.058594 65.855469 L 26.089844 66.117188 L 26.148438 66.585938 L 26.160156 66.671875 C 26.1875 66.878906 26.214844 67.082031 26.246094 67.285156 L 26.25 67.296875 L 26.277344 67.488281 C 26.421875 68.402344 26.597656 69.3125 26.808594 70.214844 L 26.8125 70.226562 L 26.828125 70.292969 L 26.871094 70.484375 L 26.902344 70.453125 C 28 69.136719 29.578125 68.410156 31.34375 68.410156 C 32.757812 68.410156 34.210938 68.878906 35.667969 69.800781 C 36.632812 70.414062 37.699219 71.5 38.796875 72.867188 C 39.8125 71.457031 41.234375 70.515625 42.863281 70.261719 C 43.175781 70.210938 43.488281 70.1875 43.804688 70.1875 C 47.523438 70.1875 49.761719 73.414062 50.609375 76.316406 C 51.027344 77.296875 53.039062 81.761719 56.078125 84.785156 C 60.695312 89.398438 61.851562 94.15625 59.566406 99.253906 L 59.574219 99.253906 C 59.730469 99.273438 59.886719 99.289062 60.042969 99.304688 C 60.136719 99.3125 60.230469 99.320312 60.324219 99.328125 L 60.355469 99.332031 L 60.5625 99.351562 L 60.753906 99.363281 C 60.933594 99.378906 61.117188 99.390625 61.296875 99.402344 L 61.441406 99.410156 L 61.558594 99.417969 L 61.628906 99.421875 L 61.851562 99.433594 L 61.914062 99.4375 L 62.148438 99.449219 L 62.40625 99.457031 L 62.617188 99.464844 L 62.652344 99.464844 C 62.695312 99.464844 62.742188 99.46875 62.785156 99.46875 L 62.835938 99.46875 C 63.128906 99.476562 63.421875 99.480469 63.71875 99.480469 L 64.03125 99.480469 L 64.253906 99.476562 C 64.308594 99.472656 64.363281 99.472656 64.421875 99.472656 L 64.582031 99.472656 C 64.613281 99.472656 64.640625 99.46875 64.671875 99.46875 L 64.761719 99.46875 L 64.9375 99.464844 L 65.199219 99.457031 L 65.492188 99.445312 C 65.574219 99.441406 65.65625 99.4375 65.742188 99.433594 L 65.832031 99.425781 L 65.964844 99.421875 L 66.042969 99.414062 L 66.101562 99.410156 L 66.367188 99.394531 L 66.636719 99.375 L 66.878906 99.355469 L 67.050781 99.339844 L 67.238281 99.324219 C 67.554688 99.296875 67.867188 99.261719 68.179688 99.226562 L 68.394531 99.199219 C 66.144531 94.125 67.308594 89.382812 71.90625 84.789062 C 74.9375 81.757812 76.953125 77.292969 77.371094 76.3125 C 78.21875 73.410156 80.457031 70.183594 84.175781 70.183594 C 84.492188 70.183594 84.804688 70.210938 85.117188 70.257812 C 86.742188 70.515625 88.167969 71.453125 89.183594 72.863281 C 90.28125 71.496094 91.347656 70.410156 92.316406 69.796875 C 93.769531 68.875 95.222656 68.410156 96.636719 68.410156 C 98.195312 68.410156 99.605469 68.972656 100.671875 70.011719 C 100.691406 69.925781 100.710938 69.839844 100.730469 69.757812 L 100.785156 69.503906 C 100.804688 69.410156 100.824219 69.316406 100.839844 69.226562 C 100.875 69.0625 100.90625 68.898438 100.9375 68.734375 C 100.972656 68.5625 101.003906 68.390625 101.035156 68.21875 L 101.050781 68.125 C 101.058594 68.070312 101.066406 68.015625 101.078125 67.960938 C 101.09375 67.875 101.109375 67.789062 101.121094 67.699219 L 101.128906 67.667969 L 101.164062 67.441406 L 101.199219 67.210938 C 101.222656 67.039062 101.25 66.871094 101.269531 66.703125 L 101.277344 66.660156 L 101.308594 66.421875 L 101.332031 66.214844 L 101.378906 65.816406 L 101.394531 65.652344 L 101.402344 65.609375 C 101.410156 65.523438 101.417969 65.433594 101.425781 65.347656 L 101.425781 65.339844 C 101.433594 65.273438 101.441406 65.203125 101.445312 65.132812 C 101.480469 64.738281 101.511719 64.34375 101.535156 63.945312 C 101.539062 63.878906 101.542969 63.816406 101.546875 63.75 L 101.546875 63.746094 L 101.5625 63.5 L 101.5625 63.445312 C 101.570312 63.28125 101.578125 63.113281 101.585938 62.949219 L 101.585938 62.878906 C 101.589844 62.824219 101.589844 62.765625 101.589844 62.710938 L 101.59375 62.691406 C 101.59375 62.640625 101.597656 62.585938 101.597656 62.535156 L 101.597656 62.488281 C 101.597656 62.4375 101.601562 62.382812 101.601562 62.332031 L 101.601562 62.285156 C 101.601562 62.21875 101.605469 62.152344 101.605469 62.085938 Z M 54.320312 99.695312 C 57.320312 95.296875 57.105469 91.992188 52.988281 87.878906 C 48.871094 83.761719 46.476562 77.742188 46.476562 77.742188 C 46.476562 77.742188 45.582031 74.246094 43.542969 74.570312 C 41.5 74.890625 40.003906 80.113281 44.277344 83.3125 C 48.546875 86.507812 43.425781 88.675781 41.78125 85.675781 C 40.136719 82.675781 35.648438 74.960938 33.324219 73.484375 C 30.996094 72.011719 29.359375 72.835938 29.90625 75.878906 C 30.179688 77.386719 32.714844 79.964844 35.082031 82.371094 C 37.484375 84.8125 39.714844 87.082031 39.238281 87.882812 C 38.289062 89.476562 34.957031 86.011719 34.957031 86.011719 C 34.957031 86.011719 24.519531 76.511719 22.246094 78.988281 C 20.152344 81.269531 23.382812 83.210938 28.359375 86.199219 C 28.785156 86.453125 29.21875 86.714844 29.667969 86.984375 C 35.363281 90.433594 35.804688 91.34375 34.996094 92.648438 C 34.699219 93.128906 32.789062 91.984375 30.445312 90.578125 C 26.449219 88.175781 21.175781 85.011719 20.433594 87.84375 C 19.789062 90.296875 23.667969 91.796875 27.183594 93.160156 C 30.113281 94.296875 32.792969 95.332031 32.398438 96.742188 C 31.992188 98.203125 29.777344 96.984375 27.355469 95.652344 C 24.636719 94.15625 21.660156 92.519531 20.6875 94.367188 C 18.84375 97.863281 33.390625 101.976562 33.511719 102.007812 C 38.210938 103.226562 50.148438 105.808594 54.320312 99.695312 Z M 73.652344 99.695312 C 70.652344 95.296875 70.863281 91.992188 74.980469 87.878906 C 79.097656 83.761719 81.496094 77.742188 81.496094 77.742188 C 81.496094 77.742188 82.390625 74.246094 84.429688 74.570312 C 86.46875 74.890625 87.964844 80.113281 83.695312 83.3125 C 79.421875 86.507812 84.542969 88.675781 86.1875 85.675781 C 87.832031 82.675781 92.320312 74.960938 94.644531 73.484375 C 96.972656 72.011719 98.609375 72.835938 98.0625 75.878906 C 97.789062 77.386719 95.253906 79.964844 92.886719 82.371094 C 90.484375 84.8125 88.253906 87.082031 88.730469 87.882812 C 89.675781 89.476562 93.011719 86.007812 93.011719 86.007812 C 93.011719 86.007812 103.449219 76.511719 105.722656 78.988281 C 107.820312 81.265625 104.589844 83.207031 99.609375 86.195312 C 99.175781 86.457031 98.738281 86.71875 98.304688 86.984375 C 92.609375 90.429688 92.164062 91.339844 92.972656 92.644531 C 93.273438 93.128906 95.179688 91.980469 97.523438 90.574219 C 101.523438 88.175781 106.792969 85.007812 107.539062 87.84375 C 108.183594 90.292969 104.304688 91.796875 100.785156 93.160156 C 97.855469 94.292969 95.175781 95.332031 95.570312 96.742188 C 95.976562 98.199219 98.191406 96.984375 100.613281 95.652344 C 103.328125 94.15625 106.308594 92.515625 107.28125 94.367188 C 109.125 97.863281 94.574219 101.972656 94.457031 102.003906 C 89.757812 103.226562 77.820312 105.808594 73.652344 99.695312 Z M 73.652344 99.695312 "/>
<path style=" stroke:none;fill-rule:evenodd;fill:rgb(19.607843%,20.392157%,23.921569%);fill-opacity:1;" d="M 76.023438 51.285156 C 76.613281 51.492188 77.054688 52.128906 77.472656 52.734375 C 78.035156 53.550781 78.5625 54.3125 79.371094 53.882812 C 80.320312 53.378906 81.101562 52.601562 81.613281 51.652344 C 82.121094 50.699219 82.339844 49.621094 82.238281 48.546875 C 82.160156 47.746094 81.90625 46.96875 81.492188 46.277344 C 81.082031 45.585938 80.519531 44.992188 79.851562 44.542969 C 79.179688 44.09375 78.417969 43.796875 77.621094 43.679688 C 76.824219 43.558594 76.011719 43.617188 75.238281 43.847656 C 74.46875 44.082031 73.757812 44.484375 73.15625 45.023438 C 72.558594 45.5625 72.089844 46.230469 71.777344 46.972656 C 71.46875 47.71875 71.328125 48.519531 71.363281 49.324219 C 71.402344 50.132812 71.617188 50.917969 71.996094 51.628906 C 72.371094 52.332031 73.199219 52 74.074219 51.652344 C 74.761719 51.375 75.476562 51.089844 76.023438 51.285156 Z M 50.335938 51.285156 C 49.746094 51.492188 49.304688 52.128906 48.886719 52.734375 C 48.324219 53.550781 47.796875 54.3125 46.988281 53.882812 C 45.792969 53.25 44.875 52.191406 44.414062 50.917969 C 43.953125 49.644531 43.984375 48.246094 44.5 46.992188 C 45.015625 45.738281 45.980469 44.722656 47.203125 44.144531 C 48.429688 43.5625 49.824219 43.457031 51.121094 43.851562 C 52.152344 44.160156 53.070312 44.769531 53.757812 45.601562 C 54.441406 46.433594 54.867188 47.453125 54.972656 48.523438 C 55.082031 49.597656 54.871094 50.679688 54.363281 51.628906 C 53.988281 52.332031 53.160156 52 52.285156 51.652344 C 51.597656 51.375 50.882812 51.089844 50.335938 51.285156 Z M 72.050781 74.660156 C 76.121094 71.453125 77.617188 66.214844 77.617188 62.988281 C 77.617188 60.4375 75.902344 61.242188 73.15625 62.601562 L 73 62.675781 C 70.476562 63.925781 67.121094 65.589844 63.4375 65.589844 C 59.753906 65.589844 56.398438 63.925781 53.878906 62.675781 C 51.042969 61.273438 49.261719 60.390625 49.261719 62.988281 C 49.261719 66.316406 50.855469 71.78125 55.222656 74.957031 C 55.796875 73.785156 56.609375 72.75 57.605469 71.90625 C 58.601562 71.066406 59.761719 70.4375 61.007812 70.0625 C 61.445312 69.933594 61.894531 70.683594 62.351562 71.453125 C 62.796875 72.191406 63.25 72.949219 63.710938 72.949219 C 64.203125 72.949219 64.683594 72.203125 65.15625 71.476562 C 65.648438 70.710938 66.128906 69.96875 66.59375 70.117188 C 68.933594 70.867188 70.886719 72.496094 72.050781 74.660156 Z M 72.050781 74.660156 "/>
<path style=" stroke:none;fill-rule:nonzero;fill:rgb(100%,19.607843%,23.921569%);fill-opacity:1;" d="M 72.046875 74.660156 C 69.929688 76.328125 67.109375 77.449219 63.4375 77.449219 C 59.992188 77.449219 57.292969 76.460938 55.222656 74.957031 C 55.796875 73.785156 56.609375 72.746094 57.605469 71.90625 C 58.601562 71.0625 59.761719 70.4375 61.007812 70.0625 C 61.863281 69.808594 62.773438 72.949219 63.710938 72.949219 C 64.714844 72.949219 65.683594 69.828125 66.59375 70.117188 C 68.929688 70.867188 70.886719 72.496094 72.046875 74.660156 Z M 72.046875 74.660156 "/>
<path style=" stroke:none;fill-rule:evenodd;fill:rgb(100%,67.843137%,1.176471%);fill-opacity:1;" d="M 40.601562 55.820312 C 40.117188 56.144531 39.558594 56.34375 38.980469 56.402344 C 38.398438 56.457031 37.8125 56.371094 37.273438 56.148438 C 36.84375 55.96875 36.453125 55.710938 36.125 55.378906 C 35.796875 55.050781 35.535156 54.660156 35.355469 54.230469 C 35.132812 53.691406 35.046875 53.105469 35.105469 52.527344 C 35.160156 51.945312 35.359375 51.386719 35.683594 50.902344 C 36.074219 50.320312 36.628906 49.867188 37.277344 49.597656 C 37.921875 49.328125 38.636719 49.261719 39.324219 49.398438 C 40.011719 49.535156 40.644531 49.871094 41.136719 50.367188 C 41.632812 50.863281 41.972656 51.496094 42.109375 52.183594 C 42.246094 52.871094 42.175781 53.582031 41.90625 54.230469 C 41.636719 54.878906 41.183594 55.429688 40.601562 55.820312 Z M 91.304688 55.820312 C 90.820312 56.144531 90.265625 56.34375 89.683594 56.402344 C 89.105469 56.457031 88.519531 56.371094 87.980469 56.148438 C 87.550781 55.96875 87.160156 55.710938 86.832031 55.378906 C 86.5 55.050781 86.242188 54.660156 86.0625 54.230469 C 85.839844 53.691406 85.753906 53.105469 85.808594 52.527344 C 85.867188 51.945312 86.066406 51.386719 86.390625 50.902344 C 86.683594 50.46875 87.066406 50.101562 87.515625 49.832031 C 87.964844 49.5625 88.46875 49.398438 88.992188 49.347656 C 89.511719 49.292969 90.039062 49.359375 90.53125 49.535156 C 91.027344 49.714844 91.472656 49.996094 91.84375 50.367188 C 92.339844 50.863281 92.675781 51.496094 92.8125 52.183594 C 92.949219 52.871094 92.878906 53.582031 92.613281 54.230469 C 92.34375 54.878906 91.890625 55.429688 91.304688 55.820312 Z M 91.304688 55.820312 "/>
</g>
</svg>
