<?xml version="1.0" encoding="UTF-8"?>
<svg xmlns="http://www.w3.org/2000/svg" xmlns:xlink="http://www.w3.org/1999/xlink" width="128px" height="128px" viewBox="0 0 128 128" version="1.1">
<g id="surface1">
<path style=" stroke:none;fill-rule:nonzero;fill:rgb(30.588235%,47.058824%,58.823529%);fill-opacity:1;" d="M 46.488281 98.960938 C 46.488281 98.960938 41.566406 101.953125 49.90625 102.808594 C 59.949219 104.089844 65.296875 103.875 76.40625 101.738281 C 78.640625 103.109375 81.003906 104.253906 83.460938 105.160156 C 58.460938 115.847656 26.820312 104.519531 46.484375 98.960938 Z M 43.289062 85.066406 C 43.289062 85.066406 37.945312 89.128906 46.28125 89.988281 C 57.179688 91.054688 65.726562 91.269531 80.480469 88.28125 C 81.914062 89.734375 83.671875 90.832031 85.609375 91.484375 C 55.472656 100.460938 21.703125 92.339844 43.289062 85.070312 Z M 102.277344 109.429688 C 102.277344 109.429688 105.90625 112.421875 98.214844 114.773438 C 83.894531 119.050781 38.160156 120.332031 25.335938 114.773438 C 20.847656 112.851562 29.394531 110.070312 32.136719 109.644531 C 34.914062 109.003906 36.414062 109.003906 36.414062 109.003906 C 31.496094 105.585938 3.714844 116.054688 22.3125 119.042969 C 73.390625 127.378906 115.496094 115.410156 102.242188 109.429688 Z M 48.800781 70.53125 C 48.800781 70.53125 25.503906 76.09375 40.464844 78.011719 C 46.875 78.867188 59.484375 78.652344 71.238281 77.800781 C 80.855469 76.945312 90.480469 75.238281 90.480469 75.238281 C 90.480469 75.238281 87.058594 76.734375 84.707031 78.230469 C 60.988281 84.433594 15.460938 81.652344 28.5 75.238281 C 39.613281 69.894531 48.804688 70.539062 48.804688 70.539062 Z M 90.480469 93.828125 C 114.414062 81.429688 103.304688 69.46875 95.609375 70.960938 C 93.6875 71.386719 92.828125 71.816406 92.828125 71.816406 C 92.828125 71.816406 93.46875 70.535156 94.964844 70.109375 C 110.140625 64.765625 122.109375 86.136719 90.042969 94.46875 C 90.042969 94.46875 90.257812 94.257812 90.472656 93.828125 Z M 51.160156 127.597656 C 74.238281 129.09375 109.507812 126.738281 110.359375 115.835938 C 110.359375 115.835938 108.652344 120.117188 91.339844 123.316406 C 71.675781 126.949219 47.3125 126.515625 32.992188 124.171875 C 32.992188 124.171875 35.984375 126.730469 51.160156 127.59375 Z M 51.160156 127.597656 "/>
<path style=" stroke:none;fill-rule:nonzero;fill:rgb(96.078431%,50.980392%,9.803922%);fill-opacity:1;" d="M 75.984375 0.00390625 C 75.984375 0.00390625 89.234375 13.46875 63.375 33.773438 C 42.644531 50.226562 58.675781 59.632812 63.375 70.320312 C 51.191406 59.421875 42.433594 49.800781 48.414062 40.828125 C 57.175781 27.570312 81.328125 21.199219 75.984375 0.00390625 Z M 69.183594 61.34375 C 75.382812 68.394531 67.476562 74.808594 67.476562 74.808594 C 67.476562 74.808594 83.292969 66.6875 76.023438 56.640625 C 69.398438 47.023438 64.265625 42.320312 92.050781 26.292969 C 92.050781 26.292969 48.238281 37.191406 69.183594 61.34375 Z M 69.183594 61.34375 "/>
</g>
</svg>
