<?xml version="1.0" encoding="UTF-8"?>
<svg xmlns="http://www.w3.org/2000/svg" xmlns:xlink="http://www.w3.org/1999/xlink" width="128px" height="156px" viewBox="0 0 128 155" version="1.1">
<defs>
<linearGradient id="linear0" gradientUnits="userSpaceOnUse" x1="26.648937" y1="20.603781" x2="135.66525" y2="114.39767" gradientTransform="matrix(0.692358,0,0,0.698696,-18.450609,-14.395774)">
<stop offset="0" style="stop-color:rgb(35.294118%,62.352941%,83.137255%);stop-opacity:1;"/>
<stop offset="1" style="stop-color:rgb(18.823529%,41.176471%,59.607843%);stop-opacity:1;"/>
</linearGradient>
<linearGradient id="linear1" gradientUnits="userSpaceOnUse" x1="150.96111" y1="192.35176" x2="112.03144" y2="137.27299" gradientTransform="matrix(0.692358,0,0,0.698696,-18.450609,-14.395774)">
<stop offset="0" style="stop-color:rgb(100%,83.137255%,23.137255%);stop-opacity:1;"/>
<stop offset="1" style="stop-color:rgb(100%,90.980392%,45.098039%);stop-opacity:1;"/>
</linearGradient>
<filter id="alpha" filterUnits="objectBoundingBox" x="0%" y="0%" width="100%" height="100%">
  <feColorMatrix type="matrix" in="SourceGraphic" values="0 0 0 0 1 0 0 0 0 1 0 0 0 0 1 0 0 0 1 0"/>
</filter>
<mask id="mask0">
  <g filter="url(#alpha)">
<rect x="0" y="0" width="128" height="155" style="fill:rgb(0%,0%,0%);fill-opacity:0.443137;stroke:none;"/>
  </g>
</mask>
<radialGradient id="radial0" gradientUnits="userSpaceOnUse" cx="61.518883" cy="132.28575" fx="61.518883" fy="132.28575" r="29.036913" gradientTransform="matrix(0.0000000215268,-0.295173,1.298053,0.00000046642,-103.016369,175.250885)">
<stop offset="0" style="stop-color:rgb(72.156863%,72.156863%,72.156863%);stop-opacity:0.498039;"/>
<stop offset="1" style="stop-color:rgb(49.803922%,49.803922%,49.803922%);stop-opacity:0;"/>
</radialGradient>
<clipPath id="clip1">
  <rect x="0" y="0" width="128" height="155"/>
</clipPath>
<g id="surface5" clip-path="url(#clip1)">
<path style=" stroke:none;fill-rule:nonzero;fill:url(#radial0);" d="M 112.921875 157.09375 C 112.921875 152.359375 93.121094 148.519531 68.699219 148.519531 C 44.273438 148.519531 24.476562 152.359375 24.476562 157.09375 C 24.476562 161.824219 44.273438 165.664062 68.699219 165.664062 C 93.121094 165.664062 112.921875 161.824219 112.921875 157.09375 Z M 112.921875 157.09375 "/>
</g>
</defs>
<g id="surface1">
<path style=" stroke:none;fill-rule:nonzero;fill:url(#linear0);" d="M 67.59375 0 C 61.949219 0.0273438 56.5625 0.507812 51.824219 1.347656 C 37.859375 3.8125 35.324219 8.972656 35.324219 18.492188 L 35.324219 31.0625 L 68.324219 31.0625 L 68.324219 35.253906 L 22.9375 35.253906 C 13.347656 35.253906 4.949219 41.015625 2.324219 51.976562 C -0.707031 64.539062 -0.839844 72.378906 2.324219 85.496094 C 4.667969 95.261719 10.269531 102.21875 19.863281 102.21875 L 31.207031 102.21875 L 31.207031 87.148438 C 31.207031 76.261719 40.632812 66.660156 51.824219 66.660156 L 84.785156 66.660156 C 93.960938 66.660156 101.285156 59.109375 101.285156 49.898438 L 101.285156 18.492188 C 101.285156 9.554688 93.738281 2.839844 84.785156 1.347656 C 79.117188 0.402344 73.234375 -0.0234375 67.59375 0 Z M 49.746094 10.113281 C 53.15625 10.113281 55.9375 12.9375 55.9375 16.417969 C 55.9375 19.878906 53.15625 22.683594 49.746094 22.683594 C 46.324219 22.683594 43.554688 19.878906 43.554688 16.417969 C 43.554688 12.9375 46.324219 10.113281 49.746094 10.113281 Z M 49.746094 10.113281 "/>
<path style=" stroke:none;fill-rule:nonzero;fill:url(#linear1);" d="M 105.398438 35.253906 L 105.398438 49.898438 C 105.398438 61.253906 95.769531 70.8125 84.785156 70.8125 L 51.824219 70.8125 C 42.792969 70.8125 35.324219 78.535156 35.324219 87.574219 L 35.324219 118.980469 C 35.324219 127.917969 43.101562 133.175781 51.824219 135.742188 C 62.269531 138.8125 72.285156 139.367188 84.785156 135.742188 C 93.09375 133.335938 101.285156 128.5 101.285156 118.980469 L 101.285156 106.410156 L 68.324219 106.410156 L 68.324219 102.21875 L 117.785156 102.21875 C 127.375 102.21875 130.949219 95.535156 134.285156 85.496094 C 137.730469 75.164062 137.582031 65.230469 134.285156 51.976562 C 131.914062 42.433594 127.386719 35.253906 117.785156 35.253906 Z M 86.863281 114.789062 C 90.28125 114.789062 93.054688 117.59375 93.054688 121.054688 C 93.054688 124.535156 90.28125 127.359375 86.863281 127.359375 C 83.453125 127.359375 80.667969 124.535156 80.667969 121.054688 C 80.667969 117.59375 83.453125 114.789062 86.863281 114.789062 Z M 86.863281 114.789062 "/>
<use xlink:href="#surface5" mask="url(#mask0)"/>
</g>
</svg>
