<?xml version="1.0" encoding="UTF-8"?>
<svg xmlns="http://www.w3.org/2000/svg" xmlns:xlink="http://www.w3.org/1999/xlink" width="128px" height="128px" viewBox="0 0 128 128" version="1.1">
<g id="surface1">
<path style=" stroke:none;fill-rule:nonzero;fill:rgb(93.333333%,29.803922%,17.254902%);fill-opacity:1;" d="M 101.640625 37.613281 L 92.347656 46.90625 C 107.835938 62.394531 107.835938 87.621094 92.347656 103.109375 C 76.859375 118.597656 51.636719 118.597656 36.148438 103.109375 C 20.660156 87.621094 20.660156 62.394531 36.148438 46.90625 L 60.929688 22.125 L 64.027344 18.585938 L 64.027344 0 L 26.414062 37.613281 C 16.429688 47.496094 10.8125 60.960938 10.8125 75.007812 C 10.8125 89.054688 16.429688 102.519531 26.414062 112.402344 C 36.296875 122.382812 49.757812 128 63.804688 128 C 77.851562 128 91.316406 122.382812 101.199219 112.402344 C 122.441406 91.601562 122.441406 57.96875 101.640625 37.613281 Z M 101.640625 37.613281 "/>
<path style=" stroke:none;fill-rule:nonzero;fill:rgb(93.333333%,29.803922%,17.254902%);fill-opacity:1;" d="M 90.136719 27.878906 C 90.136719 31.789062 86.964844 34.960938 83.054688 34.960938 C 79.144531 34.960938 75.976562 31.789062 75.976562 27.878906 C 75.976562 23.96875 79.144531 20.796875 83.054688 20.796875 C 86.964844 20.796875 90.136719 23.96875 90.136719 27.878906 Z M 90.136719 27.878906 "/>
</g>
</svg>
