<?xml version="1.0" encoding="UTF-8"?>
<svg xmlns="http://www.w3.org/2000/svg" xmlns:xlink="http://www.w3.org/1999/xlink" width="128px" height="128px" viewBox="0 0 128 128" version="1.1">
<g id="surface1">
<path style=" stroke:none;fill-rule:nonzero;fill:rgb(0%,73.72549%,94.901961%);fill-opacity:1;" d="M 56.402344 127.917969 C 44.421875 127.054688 32.578125 124.039062 25.316406 120 C 21.179688 117.703125 18.027344 114.875 16.789062 112.355469 L 16.054688 110.859375 L 16.054688 16.839844 L 16.636719 15.65625 C 19.238281 10.375 27.542969 5.613281 39.136719 2.753906 C 43.070312 1.785156 48.75 0.820312 53.386719 0.332031 C 58.117188 -0.164062 70.660156 -0.0898438 75.382812 0.464844 C 87.925781 1.9375 98.605469 5.238281 105.183594 9.675781 C 107.71875 11.386719 110.324219 14.125 111.207031 16.011719 L 111.960938 17.628906 L 111.898438 64.496094 L 111.832031 111.363281 L 111.226562 112.59375 C 110.890625 113.273438 109.882812 114.605469 108.984375 115.558594 C 103.515625 121.359375 91.777344 125.648438 76.386719 127.476562 C 73.25 127.851562 59.621094 128.152344 56.402344 127.917969 Z M 78.480469 87.636719 C 78.4375 87.519531 76.644531 85.921875 74.5 84.089844 C 72.359375 82.261719 70.511719 80.679688 70.398438 80.574219 C 70.289062 80.46875 70.683594 80.09375 71.28125 79.746094 C 71.875 79.394531 73.019531 78.421875 73.820312 77.582031 C 76.160156 75.128906 77.265625 72.09375 77.265625 68.121094 C 77.265625 64.210938 76.074219 61.054688 73.6875 58.648438 C 71.285156 56.21875 68.523438 55.175781 64.5 55.175781 C 58.300781 55.175781 53.539062 58.792969 52.019531 64.65625 C 51.5 66.675781 51.5 70.75 52.027344 72.539062 C 53.398438 77.203125 57.128906 80.59375 61.773438 81.386719 C 63.347656 81.65625 63.558594 81.773438 64.628906 82.945312 C 65.265625 83.640625 66.574219 85.03125 67.535156 86.035156 L 69.28125 87.855469 L 73.921875 87.855469 C 76.476562 87.855469 78.527344 87.757812 78.480469 87.636719 Z M 62.5625 74.640625 C 61.445312 74.058594 61.019531 73.605469 60.382812 72.308594 C 59.890625 71.308594 59.808594 70.738281 59.800781 68.375 C 59.796875 65.96875 59.871094 65.453125 60.386719 64.40625 C 61.226562 62.699219 62.386719 61.890625 64.179688 61.761719 C 66.675781 61.582031 68.113281 62.804688 68.871094 65.75 C 69.792969 69.355469 68.777344 73.191406 66.558594 74.464844 C 65.390625 75.132812 63.652344 75.210938 62.5625 74.640625 Z M 41.984375 81.335938 C 46.851562 80.414062 49.613281 77.582031 49.613281 73.519531 C 49.613281 69.914062 47.832031 67.816406 42.902344 65.613281 C 40.078125 64.355469 39.054688 63.5625 39.054688 62.640625 C 39.054688 61.875 40.027344 61.035156 41.15625 60.824219 C 42.257812 60.617188 45.183594 61.125 46.910156 61.824219 L 48.359375 62.40625 L 48.359375 56 L 46.785156 55.648438 C 45.816406 55.433594 43.773438 55.304688 41.445312 55.3125 C 38.144531 55.3125 37.496094 55.394531 36.253906 55.886719 C 32.625 57.328125 30.902344 59.78125 30.929688 63.472656 C 30.957031 66.925781 32.78125 69.082031 37.316406 71.023438 C 39.996094 72.167969 41.066406 73.039062 41.066406 74.066406 C 41.066406 76.253906 37.421875 76.523438 33.5625 74.621094 C 32.503906 74.101562 31.554688 73.632812 31.453125 73.578125 C 31.347656 73.527344 31.261719 75.023438 31.261719 76.90625 C 31.261719 80.3125 31.265625 80.328125 31.882812 80.5625 C 34.207031 81.445312 39.335938 81.839844 41.984375 81.335938 Z M 97.628906 78.179688 L 97.628906 75.285156 L 88.832031 75.285156 L 88.832031 55.425781 L 81.039062 55.425781 L 81.039062 81.070312 L 97.628906 81.070312 Z M 70.480469 27.515625 C 78.222656 26.980469 84.027344 25.964844 89.132812 24.257812 C 94.222656 22.558594 97.226562 20.5 97.902344 18.253906 C 98.160156 17.390625 98.140625 17.0625 97.777344 16.113281 C 96.15625 11.863281 87.085938 8.597656 73.230469 7.273438 C 67.304688 6.707031 56.523438 6.890625 50.871094 7.652344 C 42.25 8.820312 35.25 10.984375 32.136719 13.449219 C 25.84375 18.433594 32.5 23.914062 47.980469 26.496094 C 54.691406 27.613281 63.390625 28.007812 70.480469 27.515625 Z M 70.480469 27.515625 "/>
</g>
</svg>
