<?xml version="1.0" encoding="UTF-8"?>
<svg xmlns="http://www.w3.org/2000/svg" xmlns:xlink="http://www.w3.org/1999/xlink" width="128px" height="156px" viewBox="0 0 128 156" version="1.1">
<g id="surface1">
<path style=" stroke:none;fill-rule:nonzero;fill:rgb(0%,0%,0%);fill-opacity:1;" d="M 0.0507812 124.136719 C 0.0507812 132.402344 4.1875 135.238281 11.628906 135.238281 C 19.601562 135.238281 23.171875 131.871094 23.171875 124.167969 L 23.171875 110.597656 L 15.300781 110.597656 L 15.300781 124.96875 C 15.300781 127.566406 14.464844 129.367188 11.628906 129.367188 C 8.394531 129.367188 7.925781 127.335938 7.925781 124.96875 L 7.925781 110.597656 L 0.0507812 110.597656 Z M 0.0507812 124.136719 "/>
<path style=" stroke:none;fill-rule:nonzero;fill:rgb(0%,0%,0%);fill-opacity:1;" d="M 34.332031 134.601562 L 34.332031 126.46875 L 34.164062 122.734375 L 33.828125 119.199219 L 33.898438 119.199219 L 38.269531 134.601562 L 43.738281 134.601562 L 48.109375 119.199219 L 48.179688 119.199219 L 47.773438 123.535156 L 47.675781 127.269531 L 47.675781 134.601562 L 54.75 134.601562 L 54.75 110.597656 L 45.238281 110.597656 L 41.003906 125.566406 L 36.765625 110.597656 L 27.257812 110.597656 L 27.257812 134.601562 Z M 34.332031 134.601562 "/>
<path style=" stroke:none;fill-rule:nonzero;fill:rgb(0%,0%,0%);fill-opacity:1;" d="M 66.671875 126.4375 L 69.105469 117.835938 L 71.640625 126.4375 Z M 73.175781 110.597656 L 65.167969 110.597656 L 56.558594 134.601562 L 64.269531 134.601562 L 65.167969 131.4375 L 73.007812 131.4375 L 73.941406 134.601562 L 81.78125 134.601562 Z M 73.175781 110.597656 "/>
<path style=" stroke:none;fill-rule:nonzero;fill:rgb(0%,0%,0%);fill-opacity:1;" d="M 103.363281 117.566406 C 102.796875 113.363281 99.757812 109.964844 93.085938 109.964844 C 87.078125 109.964844 82.675781 112.53125 82.675781 117.632812 C 82.675781 126.800781 96.492188 124.300781 96.492188 127.9375 C 96.492188 129.066406 95.191406 129.703125 93.222656 129.703125 C 92.453125 129.703125 91.621094 129.503906 90.984375 129.101562 C 90.316406 128.703125 89.851562 128.066406 89.683594 127.207031 L 82.144531 127.207031 C 82.308594 131.535156 86.449219 135.238281 92.785156 135.238281 C 99.390625 135.238281 104.027344 132.539062 104.027344 126.96875 C 104.027344 118.230469 90.214844 120.464844 90.214844 116.867188 C 90.214844 115.996094 90.984375 115.5 92.71875 115.5 C 93.484375 115.5 94.1875 115.632812 94.75 115.929688 C 95.316406 116.230469 95.753906 116.730469 95.886719 117.566406 Z M 103.363281 117.566406 "/>
<path style=" stroke:none;fill-rule:nonzero;fill:rgb(0%,0%,0%);fill-opacity:1;" d="M 127 117.566406 C 126.433594 113.363281 123.394531 109.964844 116.722656 109.964844 C 110.71875 109.964844 106.316406 112.53125 106.316406 117.632812 C 106.316406 126.800781 120.128906 124.300781 120.128906 127.9375 C 120.128906 129.066406 118.824219 129.703125 116.859375 129.703125 C 116.089844 129.703125 115.257812 129.503906 114.621094 129.101562 C 113.953125 128.703125 113.484375 128.066406 113.320312 127.207031 L 105.78125 127.207031 C 105.945312 131.535156 110.085938 135.238281 116.421875 135.238281 C 123.027344 135.238281 127.664062 132.539062 127.664062 126.96875 C 127.664062 118.230469 113.855469 120.464844 113.855469 116.867188 C 113.855469 115.996094 114.621094 115.5 116.355469 115.5 C 117.125 115.5 117.824219 115.632812 118.390625 115.929688 C 118.957031 116.230469 119.394531 116.730469 119.527344 117.566406 Z M 127 117.566406 "/>
<path style=" stroke:none;fill-rule:nonzero;fill:rgb(0%,0%,0%);fill-opacity:1;" d="M 5.695312 95.871094 C 5.695312 76.65625 56.34375 39.03125 56.34375 26.757812 C 56.34375 22.621094 51.425781 21.417969 46.34375 21.417969 C 35.691406 21.417969 6.023438 34.226562 6.023438 53.175781 C 6.023438 60.113281 10.449219 63.980469 18.808594 65.847656 C 12.488281 69.3125 3.535156 67.242188 0.00390625 61.261719 L 0.00390625 104.996094 L 11.285156 104.996094 C 7.929688 103.0625 5.695312 99.4375 5.695312 95.871094 Z M 5.695312 95.871094 "/>
<path style=" stroke:none;fill-rule:nonzero;fill:rgb(0%,0%,0%);fill-opacity:1;" d="M 50.441406 18.484375 C 56.308594 18.484375 60.535156 19.601562 63.457031 21.230469 L 45.070312 0.132812 L 0.00390625 0.132812 L 0.00390625 49.945312 C 4.761719 38.765625 20.867188 18.484375 50.441406 18.484375 Z M 50.441406 18.484375 "/>
<path style=" stroke:none;fill-rule:nonzero;fill:rgb(0%,0%,0%);fill-opacity:1;" d="M 25.832031 104.996094 L 47.019531 104.996094 L 47.019531 92.949219 C 40.132812 98.375 32.894531 102.828125 25.832031 104.996094 Z M 25.832031 104.996094 "/>
<path style=" stroke:none;fill-rule:nonzero;fill:rgb(1.568627%,41.176471%,69.411765%);fill-opacity:1;" d="M 82.589844 0 L 63.777344 21.585938 C 67.109375 23.742188 68.457031 26.609375 68.457031 29.023438 C 68.457031 42.632812 16.828125 86.128906 16.828125 98.136719 C 16.828125 100.808594 18.140625 101.339844 21.089844 101.339844 C 44.855469 101.339844 85.851562 45.988281 98.132812 30.511719 C 103.050781 29.707031 108.878906 30.328125 114.121094 29.792969 C 103.679688 41.128906 76.488281 84.128906 76.488281 98.269531 C 76.488281 101.875 79.109375 103.742188 83.042969 103.742188 C 90.75 103.742188 100.910156 92 100.910156 78.390625 C 103.695312 80.394531 105.007812 83.332031 105.007812 86.261719 C 105.007812 93.90625 99.359375 100.746094 91.816406 104.316406 L 127.660156 104.316406 L 127.660156 0 Z M 82.589844 0 "/>
<path style=" stroke:none;fill-rule:nonzero;fill:rgb(1.568627%,41.176471%,69.411765%);fill-opacity:1;" d="M 0 139.660156 L 5.167969 139.660156 L 5.167969 151.527344 L 12.585938 151.527344 L 12.585938 155.621094 L 0 155.621094 Z M 0 139.660156 "/>
<path style=" stroke:none;fill-rule:nonzero;fill:rgb(1.568627%,41.176471%,69.411765%);fill-opacity:1;" d="M 28.179688 152.019531 C 29.492188 152.019531 31.511719 151.195312 31.511719 147.636719 C 31.511719 144.085938 29.492188 143.257812 28.179688 143.257812 C 26.863281 143.257812 24.84375 144.082031 24.84375 147.636719 C 24.84375 151.195312 26.863281 152.019531 28.179688 152.019531 Z M 28.179688 139.277344 C 33.273438 139.277344 36.679688 142.765625 36.679688 147.636719 C 36.679688 152.511719 33.273438 156 28.179688 156 C 23.082031 156 19.675781 152.511719 19.675781 147.636719 C 19.675781 142.769531 23.082031 139.277344 28.179688 139.277344 Z M 28.179688 139.277344 "/>
<path style=" stroke:none;fill-rule:nonzero;fill:rgb(1.568627%,41.176471%,69.411765%);fill-opacity:1;" d="M 60.984375 155.621094 L 55.957031 155.621094 L 54.148438 145.894531 L 54.101562 145.894531 L 52.339844 155.621094 L 47.292969 155.621094 L 42.738281 139.660156 L 47.808594 139.660156 L 49.851562 149.515625 L 49.898438 149.515625 L 51.917969 139.660156 L 56.472656 139.660156 L 58.445312 149.652344 L 58.496094 149.652344 L 60.582031 139.660156 L 65.679688 139.660156 Z M 60.984375 155.621094 "/>
<path style=" stroke:none;fill-rule:nonzero;fill:rgb(1.568627%,41.176471%,69.411765%);fill-opacity:1;" d="M 72.488281 139.660156 L 86.367188 139.660156 L 86.367188 143.75 L 77.652344 143.75 L 77.652344 145.738281 L 85.566406 145.738281 L 85.566406 149.539062 L 77.652344 149.539062 L 77.652344 151.527344 L 86.625 151.527344 L 86.625 155.621094 L 72.488281 155.621094 Z M 72.488281 139.660156 "/>
<path style=" stroke:none;fill-rule:nonzero;fill:rgb(1.568627%,41.176471%,69.411765%);fill-opacity:1;" d="M 94.65625 139.660156 L 99.820312 139.660156 L 99.820312 151.527344 L 107.242188 151.527344 L 107.242188 155.621094 L 94.65625 155.621094 Z M 94.65625 139.660156 "/>
<path style=" stroke:none;fill-rule:nonzero;fill:rgb(1.568627%,41.176471%,69.411765%);fill-opacity:1;" d="M 114.921875 139.660156 L 120.085938 139.660156 L 120.085938 151.527344 L 127.507812 151.527344 L 127.507812 155.621094 L 114.921875 155.621094 Z M 114.921875 139.660156 "/>
</g>
</svg>
