<?xml version="1.0" encoding="UTF-8"?>
<svg xmlns="http://www.w3.org/2000/svg" xmlns:xlink="http://www.w3.org/1999/xlink" width="128px" height="128px" viewBox="0 0 128 128" version="1.1">
<g id="surface1">
<rect x="0" y="0" width="128" height="128" style="fill:rgb(100%,100%,100%);fill-opacity:1;stroke:none;"/>
<path style=" stroke:none;fill-rule:evenodd;fill:rgb(100%,80%,20%);fill-opacity:1;" d="M 30.152344 32.359375 C 27.109375 32.359375 24.640625 29.890625 24.640625 26.847656 C 24.640625 23.800781 27.109375 21.332031 30.152344 21.332031 C 33.199219 21.332031 35.664062 23.800781 35.664062 26.847656 C 35.664062 29.890625 33.199219 32.359375 30.152344 32.359375 Z M 30.152344 57.714844 C 25.28125 57.714844 21.332031 53.765625 21.332031 48.894531 C 21.332031 44.023438 25.28125 40.074219 30.152344 40.074219 C 35.023438 40.074219 38.972656 44.023438 38.972656 48.894531 C 38.972656 53.765625 35.023438 57.714844 30.152344 57.714844 Z M 30.152344 101.816406 C 25.28125 101.816406 21.332031 97.867188 21.332031 92.996094 C 21.332031 88.125 25.28125 84.175781 30.152344 84.175781 C 35.023438 84.175781 38.972656 88.125 38.972656 92.996094 C 38.972656 97.867188 35.023438 101.816406 30.152344 101.816406 Z M 24.640625 70.945312 C 24.640625 73.992188 27.109375 76.457031 30.152344 76.457031 C 33.199219 76.457031 35.664062 73.992188 35.664062 70.945312 C 35.664062 67.902344 33.199219 65.433594 30.152344 65.433594 C 27.109375 65.433594 24.640625 67.902344 24.640625 70.945312 Z M 55.179688 79.105469 C 55.179688 83.976562 59.128906 87.925781 64 87.925781 C 68.871094 87.925781 72.820312 83.976562 72.820312 79.105469 C 72.820312 74.234375 68.871094 70.285156 64 70.285156 C 59.128906 70.285156 55.179688 74.234375 55.179688 79.105469 Z M 64 106.667969 C 60.957031 106.667969 58.488281 104.199219 58.488281 101.15625 C 58.488281 98.109375 60.957031 95.640625 64 95.640625 C 67.042969 95.640625 69.511719 98.109375 69.511719 101.15625 C 69.511719 104.199219 67.042969 106.667969 64 106.667969 Z M 58.488281 57.054688 C 58.488281 60.097656 60.957031 62.566406 64 62.566406 C 67.042969 62.566406 69.511719 60.097656 69.511719 57.054688 C 69.511719 54.011719 67.042969 51.542969 64 51.542969 C 60.957031 51.542969 58.488281 54.011719 58.488281 57.054688 Z M 64 40.515625 C 60.957031 40.515625 58.488281 38.050781 58.488281 35.003906 C 58.488281 31.960938 60.957031 29.492188 64 29.492188 C 67.042969 29.492188 69.511719 31.960938 69.511719 35.003906 C 69.511719 38.050781 67.042969 40.515625 64 40.515625 Z M 89.027344 48.894531 C 89.027344 53.765625 92.976562 57.714844 97.847656 57.714844 C 102.71875 57.714844 106.667969 53.765625 106.667969 48.894531 C 106.667969 44.023438 102.71875 40.074219 97.847656 40.074219 C 92.976562 40.074219 89.027344 44.023438 89.027344 48.894531 Z M 97.847656 32.359375 C 94.800781 32.359375 92.335938 29.890625 92.335938 26.847656 C 92.335938 23.800781 94.800781 21.332031 97.847656 21.332031 C 100.890625 21.332031 103.359375 23.800781 103.359375 26.847656 C 103.359375 29.890625 100.890625 32.359375 97.847656 32.359375 Z M 92.335938 70.945312 C 92.335938 73.992188 94.800781 76.457031 97.847656 76.457031 C 100.890625 76.457031 103.359375 73.992188 103.359375 70.945312 C 103.359375 67.902344 100.890625 65.433594 97.847656 65.433594 C 94.800781 65.433594 92.335938 67.902344 92.335938 70.945312 Z M 97.847656 98.507812 C 94.800781 98.507812 92.335938 96.039062 92.335938 92.996094 C 92.335938 89.953125 94.800781 87.484375 97.847656 87.484375 C 100.890625 87.484375 103.359375 89.953125 103.359375 92.996094 C 103.359375 96.039062 100.890625 98.507812 97.847656 98.507812 Z M 97.847656 98.507812 "/>
</g>
</svg>
