<?xml version="1.0" encoding="UTF-8"?>
<svg xmlns="http://www.w3.org/2000/svg" xmlns:xlink="http://www.w3.org/1999/xlink" width="216px" height="216px" viewBox="0 0 216 216" version="1.1">
<g id="surface1">
<path style=" stroke:none;fill-rule:nonzero;fill:rgb(0%,0%,0%);fill-opacity:1;" d="M 101.523438 24.839844 C 101.523438 25.867188 103.355469 35.15625 104.007812 37.367188 C 104.222656 38.015625 104.816406 38.339844 105.839844 38.339844 C 107.242188 38.339844 107.460938 38.066406 108.214844 35.371094 C 108.699219 33.75 109.238281 31.703125 109.40625 30.777344 C 109.945312 28.238281 110.535156 28.835938 111.242188 32.78125 C 112.265625 38.339844 112.589844 38.992188 114.3125 38.769531 C 115.777344 38.605469 115.882812 38.289062 117.558594 32.128906 C 118.527344 28.570312 119.289062 25.328125 119.339844 24.953125 C 119.339844 24.242188 116.644531 23.976562 116.585938 24.679688 C 116.585938 24.953125 116.046875 27.273438 115.398438 29.910156 L 114.160156 34.777344 L 113.128906 29.535156 L 112.105469 24.300781 L 110.371094 24.300781 C 108.648438 24.300781 108.648438 24.300781 107.460938 29.160156 C 106.8125 31.804688 106.21875 34.023438 106.105469 34.023438 C 106.054688 34.023438 105.566406 31.703125 105.027344 28.894531 C 104.160156 24.089844 104.058594 23.757812 102.820312 23.757812 C 101.898438 23.757812 101.523438 24.089844 101.523438 24.839844 Z M 101.523438 24.839844 "/>
<path style=" stroke:none;fill-rule:nonzero;fill:rgb(0%,0%,0%);fill-opacity:1;" d="M 90.507812 25.972656 C 87.859375 26.511719 85.589844 27.101562 85.429688 27.214844 C 85.316406 27.375 85.378906 27.96875 85.589844 28.570312 C 85.855469 29.433594 86.34375 29.644531 87.914062 29.535156 L 89.855469 29.433594 L 90.933594 34.664062 C 92.015625 39.851562 92.066406 39.960938 93.53125 39.960938 C 94.335938 39.960938 95.039062 39.742188 95.039062 39.53125 C 95.039062 39.3125 94.550781 36.933594 93.960938 34.238281 C 93.367188 31.589844 92.878906 29.160156 92.878906 28.835938 C 92.878906 28.457031 93.742188 28.027344 94.824219 27.863281 C 96.230469 27.589844 96.660156 27.273438 96.445312 26.675781 C 96.28125 26.1875 96.121094 25.59375 96.121094 25.328125 C 96.121094 24.730469 96.445312 24.679688 90.507812 25.972656 Z M 90.507812 25.972656 "/>
<path style=" stroke:none;fill-rule:nonzero;fill:rgb(0%,0%,0%);fill-opacity:1;" d="M 125.878906 27.863281 C 123.335938 29.699219 121.875 34.882812 123.121094 38.015625 C 123.769531 39.851562 126.679688 41.582031 129.007812 41.582031 C 132.566406 41.582031 136.132812 36.019531 135.324219 31.703125 C 134.5625 27.757812 129.164062 25.542969 125.878906 27.863281 Z M 131.652344 30.347656 C 133.21875 31.914062 131.757812 37.90625 129.65625 38.605469 C 127.976562 39.09375 126.355469 38.453125 125.816406 36.992188 C 125.277344 35.53125 126.089844 32.019531 127.335938 30.617188 C 128.25 29.535156 130.683594 29.371094 131.652344 30.347656 Z M 131.652344 30.347656 "/>
<path style=" stroke:none;fill-rule:nonzero;fill:rgb(0%,0%,0%);fill-opacity:1;" d="M 77.867188 29.644531 C 77.273438 30.023438 77.433594 30.839844 78.789062 33.914062 C 79.703125 36.019531 80.460938 37.855469 80.460938 38.015625 C 80.460938 38.230469 78.679688 37.046875 76.519531 35.371094 C 72.355469 32.242188 71.816406 32.078125 70.199219 32.9375 C 69.28125 33.425781 69.394531 33.851562 71.980469 39.960938 C 73.550781 43.523438 75.0625 46.4375 75.332031 46.4375 C 75.65625 46.4375 76.246094 46.222656 76.683594 45.898438 C 77.328125 45.519531 77.222656 44.816406 75.757812 41.3125 C 74.789062 39.09375 74.359375 37.421875 74.738281 37.640625 C 75.113281 37.90625 77.007812 39.203125 78.953125 40.664062 C 82.238281 42.984375 82.621094 43.144531 83.910156 42.546875 C 84.726562 42.230469 85.265625 41.6875 85.15625 41.363281 C 83.105469 36.183594 79.648438 29.160156 79.164062 29.160156 C 78.839844 29.160156 78.242188 29.371094 77.867188 29.644531 Z M 77.867188 29.644531 "/>
<path style=" stroke:none;fill-rule:nonzero;fill:rgb(0%,0%,0%);fill-opacity:1;" d="M 139.644531 37.90625 C 136.621094 43.578125 136.507812 43.953125 137.433594 44.65625 C 138.839844 45.679688 139.105469 45.578125 139.855469 43.742188 C 140.722656 41.6875 141.648438 40.9375 142.777344 41.363281 C 143.53125 41.6875 143.644531 42.171875 143.371094 44.550781 C 143.046875 47.085938 143.101562 47.464844 144.234375 48.277344 C 144.933594 48.757812 145.691406 49.144531 145.90625 49.144531 C 146.179688 49.144531 146.339844 47.738281 146.339844 45.953125 C 146.339844 42.871094 146.394531 42.769531 147.960938 42.445312 C 149.199219 42.230469 149.851562 41.632812 150.445312 40.175781 C 151.683594 37.203125 150.933594 35.695312 147.09375 33.648438 C 145.367188 32.667969 143.644531 31.855469 143.371094 31.855469 C 143.046875 31.855469 141.375 34.5625 139.644531 37.90625 Z M 147.960938 37.742188 C 147.960938 39.3125 147.042969 40.125 145.742188 39.742188 C 143.207031 39.09375 142.882812 38.605469 143.585938 36.828125 L 144.285156 35.15625 L 146.128906 36.019531 C 147.148438 36.507812 147.960938 37.316406 147.960938 37.742188 Z M 147.960938 37.742188 "/>
<path style=" stroke:none;fill-rule:nonzero;fill:rgb(0%,0%,0%);fill-opacity:1;" d="M 59.886719 39.261719 C 57.890625 40.714844 56.210938 42.007812 56.105469 42.171875 C 55.996094 42.335938 57.671875 45.039062 59.886719 48.21875 L 63.882812 53.949219 L 67.824219 51.191406 C 71.277344 48.757812 71.65625 48.332031 71.117188 47.464844 C 70.308594 46.117188 70.199219 46.167969 67.609375 48.0625 C 64.90625 50.007812 64.742188 50.007812 63.773438 48.488281 C 63.121094 47.414062 63.183594 47.199219 64.316406 46.4375 C 64.964844 46.011719 66.042969 45.203125 66.636719 44.714844 C 67.664062 43.902344 67.714844 43.742188 66.910156 42.933594 C 66.09375 42.070312 65.828125 42.121094 63.722656 43.523438 C 61.507812 44.980469 61.398438 45.039062 60.699219 44.007812 C 59.667969 42.605469 59.667969 42.605469 62.371094 40.773438 C 65.066406 38.992188 65.066406 38.929688 64.097656 37.640625 C 63.507812 36.773438 63.121094 36.933594 59.886719 39.261719 Z M 59.886719 39.261719 "/>
<path style=" stroke:none;fill-rule:nonzero;fill:rgb(0%,0%,0%);fill-opacity:1;" d="M 155.523438 40.226562 C 154.875 40.988281 154.976562 41.3125 156.332031 42.335938 L 157.894531 43.632812 L 155.6875 46.492188 C 154.4375 48.113281 152.816406 50.160156 152.066406 51.089844 C 150.660156 52.8125 150.710938 53.085938 152.65625 54.214844 C 153.039062 54.4375 154.601562 52.867188 156.65625 50.222656 C 158.492188 47.839844 160.164062 45.898438 160.378906 45.898438 C 160.59375 45.898438 161.351562 46.386719 162.101562 46.976562 C 163.132812 47.738281 163.621094 47.839844 164.046875 47.414062 C 165.183594 46.28125 164.757812 45.628906 161.1875 42.710938 C 156.980469 39.367188 156.4375 39.09375 155.523438 40.226562 Z M 155.523438 40.226562 "/>
<path style=" stroke:none;fill-rule:nonzero;fill:rgb(0%,0%,0%);fill-opacity:1;" d="M 49.785156 47.085938 C 48.820312 48.0625 48.921875 48.4375 51.464844 51.730469 C 52.761719 53.410156 54 55.132812 54.214844 55.507812 C 54.4375 55.894531 52.648438 55.238281 50.222656 54 L 45.742188 51.730469 L 44.65625 52.867188 L 43.578125 53.949219 L 46.386719 57.992188 C 47.949219 60.261719 49.03125 62.101562 48.871094 62.101562 C 48.65625 62.101562 46.8125 61.074219 44.714844 59.835938 C 40.988281 57.617188 39.636719 57.453125 39.042969 59.242188 C 38.828125 59.78125 50.160156 66.417969 51.242188 66.417969 C 51.464844 66.417969 52.105469 65.929688 52.648438 65.339844 C 53.625 64.257812 53.5625 64.152344 50.867188 60.261719 C 49.296875 58.050781 48.0625 56.105469 48.0625 55.945312 C 48.0625 55.78125 50.058594 56.757812 52.492188 58.050781 C 56.644531 60.261719 57.023438 60.375 57.890625 59.5625 C 58.429688 59.078125 58.855469 58.429688 58.855469 58.105469 C 58.855469 57.402344 51.464844 46.761719 50.867188 46.550781 C 50.652344 46.492188 50.160156 46.710938 49.785156 47.085938 Z M 49.785156 47.085938 "/>
<path style=" stroke:none;fill-rule:nonzero;fill:rgb(0%,0%,0%);fill-opacity:1;" d="M 164.699219 53.785156 C 158.492188 59.179688 158.492188 59.179688 159.300781 60.160156 C 160.21875 61.339844 160.492188 61.289062 162.863281 59.34375 L 164.910156 57.726562 L 166.644531 59.78125 L 168.375 61.777344 L 166.105469 63.828125 C 163.894531 65.769531 163.894531 65.828125 164.972656 66.851562 C 166.050781 67.9375 166.050781 67.9375 171.34375 63.34375 C 175.9375 59.398438 176.527344 58.644531 176.039062 57.726562 C 175.285156 56.320312 174.800781 56.433594 172.476562 58.429688 L 170.480469 60.160156 L 168.699219 58.050781 L 166.914062 55.945312 L 169.074219 54.109375 C 171.121094 52.328125 171.183594 52.21875 170.320312 51.242188 C 169.832031 50.652344 169.238281 50.222656 169.074219 50.222656 C 168.914062 50.273438 166.914062 51.839844 164.699219 53.785156 Z M 164.699219 53.785156 "/>
<path style=" stroke:none;fill-rule:nonzero;fill:rgb(0%,0%,0%);fill-opacity:1;" d="M 102.21875 63.183594 C 98.441406 63.882812 94.175781 65.664062 88.339844 69.007812 C 81.488281 72.953125 78.839844 73.167969 69.007812 70.410156 C 65.394531 69.445312 65.394531 69.445312 63.882812 70.578125 C 62.480469 71.605469 62.371094 71.980469 62.421875 75.113281 C 62.480469 77.921875 62.910156 79.542969 64.855469 83.972656 C 67.5 89.960938 67.449219 89.421875 67.011719 109.351562 C 66.851562 118.421875 67.664062 122.90625 70.847656 129.546875 C 73.492188 135.050781 79.378906 141.3125 84.890625 144.449219 C 87.859375 146.179688 89.046875 147.3125 91.476562 150.660156 C 95.089844 155.738281 98.117188 158.492188 101.898438 160.21875 C 104.382812 161.351562 105.464844 161.511719 108.699219 161.351562 C 110.972656 161.242188 113.453125 160.703125 114.648438 160.164062 C 117.660156 158.652344 121.449219 155.035156 124.472656 150.710938 C 126.679688 147.585938 127.875 146.394531 130.949219 144.609375 C 136.671875 141.261719 142.507812 135.050781 145.152344 129.546875 C 148.335938 122.90625 149.148438 118.421875 148.988281 109.351562 C 148.550781 89.421875 148.5 89.960938 151.144531 83.972656 C 153.089844 79.542969 153.519531 77.921875 153.578125 75.113281 C 153.628906 71.980469 153.519531 71.605469 152.117188 70.578125 C 150.605469 69.445312 150.605469 69.445312 146.992188 70.410156 C 136.996094 73.222656 134.5625 73.011719 127.117188 68.738281 C 124.199219 67.0625 120.203125 65.128906 118.203125 64.421875 C 114.050781 62.960938 106.59375 62.421875 102.21875 63.183594 Z M 114.75 68.796875 C 117.828125 69.605469 119.289062 70.308594 126.039062 74.148438 C 130.460938 76.683594 131.058594 76.894531 135.214844 77.109375 C 138.617188 77.273438 140.617188 77.058594 143.855469 76.195312 C 146.128906 75.546875 148.285156 75.164062 148.550781 75.332031 C 149.527344 75.980469 149.039062 78.628906 147.261719 82.351562 C 143.960938 89.207031 143.960938 89.257812 143.910156 104.757812 C 143.910156 118.589844 143.855469 119.179688 142.613281 122.3125 C 137.535156 135 126.46875 142.832031 115.882812 141.261719 C 112.644531 140.78125 111.242188 139.539062 110.859375 136.894531 C 110.484375 134.03125 111.777344 132.464844 116.585938 129.921875 C 118.691406 128.839844 120.742188 127.386719 121.226562 126.742188 C 122.414062 125.066406 122.199219 122.851562 120.742188 121.125 L 119.394531 119.605469 L 118.527344 120.851562 C 116.695312 123.394531 113.5625 124.472656 108 124.472656 C 103.734375 124.472656 102.488281 124.257812 100.601562 123.28125 C 99.355469 122.582031 97.953125 121.5 97.523438 120.851562 L 96.660156 119.664062 L 95.582031 120.742188 C 94.988281 121.335938 94.335938 122.6875 94.175781 123.710938 C 93.742188 126.203125 95.039062 127.761719 99.898438 130.410156 C 104.328125 132.839844 105.566406 134.625 105.027344 137.484375 C 104.492188 140.398438 102.707031 141.210938 96.933594 141.210938 C 92.453125 141.210938 91.742188 141.050781 88.289062 139.378906 C 83.105469 136.835938 77.976562 131.546875 75.164062 125.878906 C 71.980469 119.503906 71.605469 117.121094 71.980469 103.785156 C 72.355469 90.882812 72.089844 89.320312 68.90625 82.621094 C 67.011719 78.679688 66.472656 75.980469 67.449219 75.332031 C 67.714844 75.164062 69.871094 75.546875 72.144531 76.195312 C 75.382812 77.058594 77.382812 77.273438 80.785156 77.109375 C 84.941406 76.894531 85.539062 76.683594 89.960938 74.148438 C 96.605469 70.359375 98.171875 69.605469 100.976562 68.796875 C 104.222656 67.9375 111.402344 67.875 114.75 68.796875 Z M 115.507812 147.261719 L 118.964844 148.125 L 115.71875 151.257812 C 110.105469 156.707031 106.003906 156.707031 100.335938 151.308594 C 96.710938 147.851562 96.546875 148.0625 103.03125 146.664062 C 106.972656 145.742188 110.105469 145.90625 115.507812 147.261719 Z M 115.507812 147.261719 "/>
<path style=" stroke:none;fill-rule:nonzero;fill:rgb(0%,0%,0%);fill-opacity:1;" d="M 79.917969 98.007812 C 79.917969 103.144531 82.621094 107.898438 86.34375 109.457031 C 87.425781 109.945312 89.960938 110.371094 92.015625 110.484375 C 96.121094 110.644531 96.710938 110.972656 96.820312 113.078125 C 96.933594 114.535156 96.933594 114.535156 97.847656 113.398438 C 99.089844 111.890625 99.519531 108.539062 98.878906 105.953125 C 97.796875 102.007812 94.335938 99.578125 87.160156 97.796875 C 79.269531 95.851562 79.917969 95.851562 79.917969 98.007812 Z M 79.917969 98.007812 "/>
<path style=" stroke:none;fill-rule:nonzero;fill:rgb(0%,0%,0%);fill-opacity:1;" d="M 130.03125 97.523438 C 124.144531 98.929688 121.398438 100.167969 119.179688 102.332031 C 116.53125 105.027344 115.988281 110.757812 118.152344 113.398438 C 119.066406 114.535156 119.066406 114.535156 119.179688 113.078125 C 119.289062 110.972656 119.878906 110.644531 123.984375 110.484375 C 126.039062 110.371094 128.574219 109.945312 129.65625 109.457031 C 133.378906 107.898438 136.082031 103.144531 136.082031 98.066406 C 136.082031 96.984375 135.914062 96.121094 135.699219 96.171875 C 135.4375 96.171875 132.894531 96.820312 130.03125 97.523438 Z M 130.03125 97.523438 "/>
<path style=" stroke:none;fill-rule:nonzero;fill:rgb(0%,0%,0%);fill-opacity:1;" d="M 27.648438 87.585938 C 27.214844 89.320312 27.214844 89.960938 27.699219 90.285156 C 28.027344 90.507812 28.507812 90.34375 28.730469 89.910156 C 29.371094 88.832031 35.855469 90.722656 36.070312 92.015625 C 36.394531 93.6875 38.015625 92.71875 38.503906 90.507812 C 38.878906 88.9375 38.828125 88.339844 38.289062 87.964844 C 37.800781 87.648438 37.476562 87.800781 37.367188 88.339844 C 37.203125 88.882812 36.828125 89.046875 36.285156 88.832031 C 35.746094 88.613281 34.1875 88.1875 32.722656 87.859375 C 30.992188 87.476562 29.972656 86.9375 29.808594 86.292969 C 29.371094 84.566406 28.238281 85.265625 27.648438 87.585938 Z M 27.648438 87.585938 "/>
<path style=" stroke:none;fill-rule:nonzero;fill:rgb(0%,0%,0%);fill-opacity:1;" d="M 176.582031 86.886719 C 176.582031 87.964844 177.007812 88.1875 180.304688 88.832031 L 182.085938 89.207031 L 180.089844 91.257812 C 178.523438 92.878906 178.199219 93.53125 178.578125 94.226562 C 179.066406 95.039062 179.492188 94.824219 182.035156 92.453125 C 183.757812 90.773438 185.652344 89.585938 186.730469 89.371094 C 188.03125 89.15625 188.460938 88.777344 188.460938 87.964844 C 188.460938 86.9375 188.242188 86.886719 185.816406 87.210938 C 183.546875 87.535156 181.660156 87.261719 177.546875 86.078125 C 176.851562 85.855469 176.582031 86.078125 176.582031 86.886719 Z M 176.582031 86.886719 "/>
<path style=" stroke:none;fill-rule:nonzero;fill:rgb(0%,0%,0%);fill-opacity:1;" d="M 25.59375 96.933594 C 25.105469 98.171875 25.429688 98.339844 29.535156 98.714844 L 33.210938 99.089844 L 29.046875 100.925781 C 25.648438 102.4375 24.839844 103.03125 24.839844 104.007812 C 24.839844 105.027344 25.21875 105.191406 27.96875 105.515625 C 29.644531 105.730469 32.179688 106.003906 33.648438 106.164062 C 35.910156 106.429688 36.183594 106.378906 36.183594 105.40625 C 36.183594 104.433594 35.695312 104.222656 32.292969 103.894531 L 28.351562 103.519531 L 32.5625 101.625 C 35.960938 100.117188 36.722656 99.519531 36.722656 98.550781 C 36.722656 97.410156 36.394531 97.308594 32.292969 96.933594 C 29.808594 96.769531 27.375 96.445312 26.835938 96.335938 C 26.300781 96.171875 25.761719 96.394531 25.59375 96.933594 Z M 25.59375 96.933594 "/>
<path style=" stroke:none;fill-rule:nonzero;fill:rgb(0%,0%,0%);fill-opacity:1;" d="M 186.464844 97.578125 C 184.785156 97.796875 184.683594 97.953125 184.683594 99.953125 C 184.683594 101.738281 184.84375 102.0625 185.816406 102.0625 C 186.730469 102.0625 186.894531 101.789062 186.679688 100.925781 C 186.464844 100.0625 186.628906 99.84375 187.542969 100.011719 C 188.410156 100.117188 188.785156 100.601562 188.898438 101.6875 C 189.164062 103.949219 188.1875 104.757812 185.160156 104.757812 C 181.976562 104.757812 180.953125 103.519531 181.976562 100.976562 C 182.351562 100.117188 182.464844 99.203125 182.300781 98.878906 C 181.710938 97.902344 180.414062 98.878906 179.816406 100.761719 C 178.410156 105.027344 182.414062 108.273438 187.378906 106.917969 C 190.082031 106.164062 191.433594 104.328125 190.945312 101.949219 C 190.730469 100.976562 190.621094 99.519531 190.621094 98.65625 C 190.621094 97.09375 190.570312 97.09375 186.464844 97.578125 Z M 186.464844 97.578125 "/>
<path style=" stroke:none;fill-rule:nonzero;fill:rgb(0%,0%,0%);fill-opacity:1;" d="M 30.777344 112.050781 C 30.453125 112.480469 30.023438 113.835938 29.859375 115.023438 C 29.59375 116.910156 29.371094 117.234375 28.40625 117.070312 C 27.050781 116.855469 26.511719 114.3125 27.539062 113.128906 C 28.082031 112.480469 28.027344 112.265625 27.273438 111.941406 C 26.03125 111.507812 24.839844 113.078125 24.839844 115.1875 C 24.839844 120.09375 30.839844 121.449219 31.644531 116.695312 C 32.128906 113.667969 32.34375 113.292969 33.3125 113.511719 C 34.074219 113.667969 34.289062 114.261719 34.289062 116.101562 C 34.289062 118.90625 35.53125 119.453125 36.34375 117.019531 C 36.933594 115.238281 36.507812 113.292969 35.320312 112.105469 C 34.289062 111.023438 31.644531 110.972656 30.777344 112.050781 Z M 30.777344 112.050781 "/>
<path style=" stroke:none;fill-rule:nonzero;fill:rgb(0%,0%,0%);fill-opacity:1;" d="M 181.550781 112.703125 C 180.253906 113.179688 179.171875 116.15625 179.550781 118.097656 C 179.980469 120.417969 182.414062 122.039062 185.597656 122.039062 C 188.511719 122.039062 190.507812 120.367188 190.996094 117.609375 C 191.269531 115.882812 191.046875 115.398438 189.648438 113.9375 C 188.1875 112.539062 187.648438 112.316406 185.109375 112.378906 C 183.546875 112.378906 181.925781 112.539062 181.550781 112.703125 Z M 188.136719 115.339844 C 189.375 116.53125 189.214844 118.640625 187.867188 119.394531 C 186.566406 120.09375 183.382812 119.71875 182.199219 118.742188 C 181.28125 117.992188 181.222656 115.988281 182.085938 115.125 C 183.0625 114.160156 187.164062 114.3125 188.136719 115.339844 Z M 188.136719 115.339844 "/>
<path style=" stroke:none;fill-rule:nonzero;fill:rgb(0%,0%,0%);fill-opacity:1;" d="M 35.796875 122.363281 C 35.320312 122.582031 35.320312 123.070312 35.695312 124.035156 C 35.960938 124.796875 36.121094 125.492188 36.070312 125.550781 C 35.960938 125.605469 34.074219 126.089844 31.855469 126.628906 C 27.324219 127.710938 26.835938 127.976562 27.273438 129.164062 C 27.589844 129.921875 28.027344 129.921875 31.480469 129.007812 C 36.449219 127.710938 36.558594 127.710938 36.933594 129.332031 C 37.367188 130.949219 38.878906 131.160156 38.878906 129.601562 C 38.878906 128.148438 37.152344 122.039062 36.773438 122.089844 C 36.609375 122.089844 36.183594 122.257812 35.796875 122.363281 Z M 35.796875 122.363281 "/>
<path style=" stroke:none;fill-rule:nonzero;fill:rgb(0%,0%,0%);fill-opacity:1;" d="M 186.839844 129.007812 L 186.300781 131.109375 L 182.839844 130.144531 C 180.953125 129.601562 178.902344 129.007812 178.308594 128.839844 C 177.546875 128.574219 177.171875 128.789062 176.957031 129.601562 C 176.738281 130.519531 177.121094 130.785156 179.714844 131.546875 C 181.4375 131.976562 183.488281 132.628906 184.355469 132.894531 C 187.21875 133.8125 187.761719 133.542969 188.410156 131.007812 C 189.214844 127.8125 189.164062 126.898438 188.1875 126.898438 C 187.761719 126.898438 187.164062 127.761719 186.839844 129.007812 Z M 186.839844 129.007812 "/>
<path style=" stroke:none;fill-rule:nonzero;fill:rgb(0%,0%,0%);fill-opacity:1;" d="M 38.992188 134.785156 C 39.203125 136.132812 32.5625 138.839844 31.855469 137.644531 C 31.480469 137.105469 31.214844 137.046875 30.726562 137.535156 C 30.242188 138.023438 30.296875 138.671875 30.941406 140.242188 C 31.753906 142.289062 33.261719 143.101562 33.160156 141.425781 C 33.050781 140.128906 39.367188 137.644531 40.601562 138.453125 C 42.007812 139.316406 42.335938 138.453125 41.527344 136.238281 C 40.714844 134.136719 38.664062 132.953125 38.992188 134.785156 Z M 38.992188 134.785156 "/>
<path style=" stroke:none;fill-rule:nonzero;fill:rgb(0%,0%,0%);fill-opacity:1;" d="M 174.203125 137.859375 C 172.367188 139.703125 172.257812 142.9375 174.042969 144.558594 C 177.933594 148.125 182.839844 147.53125 183.921875 143.371094 C 184.734375 140.078125 182.199219 137.210938 177.933594 136.730469 C 175.9375 136.507812 175.398438 136.671875 174.203125 137.859375 Z M 180.253906 139.855469 C 182.839844 141.425781 182.414062 144.722656 179.65625 144.722656 C 177.984375 144.722656 175.011719 143.101562 174.6875 141.964844 C 173.769531 139.105469 176.957031 137.859375 180.253906 139.855469 Z M 180.253906 139.855469 "/>
<path style=" stroke:none;fill-rule:nonzero;fill:rgb(0%,0%,0%);fill-opacity:1;" d="M 42.496094 142.339844 C 42.28125 142.5625 42.496094 143.320312 42.933594 143.960938 C 43.742188 145.203125 43.632812 145.257812 39.960938 147.472656 C 35.644531 150.007812 35.371094 150.28125 36.394531 151.144531 C 37.046875 151.683594 37.964844 151.359375 40.875 149.582031 L 44.550781 147.3125 L 45.46875 148.5 C 46.0625 149.199219 46.761719 149.582031 47.300781 149.363281 C 48.007812 149.089844 47.839844 148.5 46.222656 145.691406 C 44.441406 142.449219 43.359375 141.535156 42.496094 142.339844 Z M 42.496094 142.339844 "/>
<path style=" stroke:none;fill-rule:nonzero;fill:rgb(0%,0%,0%);fill-opacity:1;" d="M 168.3125 148.335938 C 167.5625 149.039062 167.992188 149.582031 171.070312 151.742188 C 174.148438 153.953125 174.148438 154.011719 172.257812 153.679688 C 166.105469 152.765625 164.972656 152.765625 164.320312 153.84375 C 163.730469 154.8125 164.046875 155.25 168.101562 158.160156 C 171.558594 160.648438 172.691406 161.242188 173.289062 160.761719 C 174.042969 160.105469 173.664062 159.679688 169.5625 156.546875 L 167.78125 155.199219 L 172.203125 155.6875 C 175.875 156.113281 176.796875 156.113281 177.171875 155.464844 C 177.933594 154.222656 177.820312 154.117188 173.554688 150.984375 C 169.339844 147.910156 168.914062 147.6875 168.3125 148.335938 Z M 168.3125 148.335938 "/>
<path style=" stroke:none;fill-rule:nonzero;fill:rgb(0%,0%,0%);fill-opacity:1;" d="M 46.601562 155.414062 C 44.007812 157.785156 43.199219 158.921875 43.199219 160.054688 C 43.199219 161.898438 45.84375 164.699219 47.625 164.699219 C 48.757812 164.699219 55.621094 159.679688 55.621094 158.816406 C 55.621094 158.652344 55.40625 158.160156 55.132812 157.734375 C 54.757812 157.144531 53.949219 157.570312 51.464844 159.730469 C 48.164062 162.589844 47.148438 163.027344 46.011719 161.898438 C 44.765625 160.648438 45.414062 159.355469 48.601562 156.546875 C 51.140625 154.335938 51.730469 153.578125 51.242188 153.039062 C 50.921875 152.605469 50.492188 152.277344 50.273438 152.277344 C 50.109375 152.277344 48.4375 153.679688 46.601562 155.414062 Z M 46.601562 155.414062 "/>
<path style=" stroke:none;fill-rule:nonzero;fill:rgb(0%,0%,0%);fill-opacity:1;" d="M 159.40625 159.40625 C 158.921875 159.894531 159.140625 160.429688 160.429688 161.785156 L 162.050781 163.457031 L 160.328125 164.910156 L 158.597656 166.378906 L 156.871094 164.699219 C 155.300781 163.1875 155.085938 163.132812 154.4375 163.894531 C 153.792969 164.644531 154.222656 165.296875 157.460938 168.648438 C 159.515625 170.746094 161.242188 172.589844 161.300781 172.742188 C 161.410156 172.855469 161.785156 172.640625 162.273438 172.257812 C 162.96875 171.660156 162.914062 171.394531 161.726562 169.988281 C 160.054688 167.992188 160.054688 167.9375 161.898438 166.15625 L 163.351562 164.757812 L 164.644531 166.316406 C 165.941406 167.992188 167.078125 168.375 167.667969 167.398438 C 167.992188 166.855469 161.1875 158.757812 160.429688 158.757812 C 160.21875 158.757812 159.789062 159.027344 159.40625 159.40625 Z M 159.40625 159.40625 "/>
<path style=" stroke:none;fill-rule:nonzero;fill:rgb(0%,0%,0%);fill-opacity:1;" d="M 58.105469 162.375 C 57.839844 162.96875 58.105469 163.621094 58.855469 164.160156 C 59.9375 164.972656 59.886719 165.023438 57.023438 168.535156 C 54.757812 171.234375 54.214844 172.257812 54.648438 172.691406 C 55.671875 173.71875 55.894531 173.554688 58.703125 170.101562 C 60.101562 168.3125 61.507812 166.855469 61.777344 166.855469 C 62.046875 166.855469 62.695312 167.242188 63.183594 167.667969 C 63.933594 168.375 64.203125 168.375 64.742188 167.78125 C 65.230469 167.179688 64.800781 166.589844 62.746094 164.910156 C 58.265625 161.1875 58.480469 161.300781 58.105469 162.375 Z M 58.105469 162.375 "/>
<path style=" stroke:none;fill-rule:nonzero;fill:rgb(0%,0%,0%);fill-opacity:1;" d="M 146.289062 170.046875 C 144.507812 171.828125 144.34375 173.179688 145.589844 175.824219 C 147.53125 179.929688 151.199219 181.011719 153.953125 178.257812 C 155.789062 176.363281 156.0625 174.417969 154.4375 174.417969 C 153.742188 174.417969 153.355469 174.800781 153.355469 175.398438 C 153.355469 177.871094 150.28125 178.410156 148.550781 176.199219 C 146.128906 173.179688 146.71875 170.320312 149.6875 170.746094 C 150.605469 170.910156 151.257812 170.695312 151.472656 170.207031 C 152.339844 167.9375 148.550781 167.78125 146.289062 170.046875 Z M 146.289062 170.046875 "/>
<path style=" stroke:none;fill-rule:nonzero;fill:rgb(0%,0%,0%);fill-opacity:1;" d="M 65.769531 174.09375 C 64.316406 176.582031 63.183594 178.742188 63.183594 178.902344 C 63.183594 179.492188 69.121094 182.574219 69.660156 182.25 C 70.632812 181.660156 70.257812 181.011719 68.199219 179.765625 C 67.0625 179.117188 66.042969 178.472656 65.929688 178.410156 C 65.878906 178.308594 66.09375 177.769531 66.53125 177.171875 L 67.285156 176.089844 L 69.121094 177.171875 C 70.632812 178.144531 71.007812 178.199219 71.65625 177.496094 C 72.355469 176.851562 72.203125 176.582031 70.523438 175.601562 C 68.46875 174.417969 68.3125 174.09375 69.070312 172.855469 C 69.496094 172.203125 69.871094 172.316406 71.550781 173.230469 C 73.875 174.636719 74.300781 174.6875 74.6875 173.664062 C 74.898438 173.128906 74.035156 172.316406 72.089844 171.234375 C 70.472656 170.320312 68.957031 169.5625 68.738281 169.5625 C 68.46875 169.5625 67.175781 171.609375 65.769531 174.09375 Z M 65.769531 174.09375 "/>
<path style=" stroke:none;fill-rule:nonzero;fill:rgb(0%,0%,0%);fill-opacity:1;" d="M 136.351562 175.0625 C 134.898438 175.664062 133.429688 176.3125 133.164062 176.582031 C 132.679688 177.070312 136.40625 186.839844 137.046875 186.839844 C 138.183594 186.839844 143.644531 184.296875 143.644531 183.757812 C 143.644531 182.625 142.71875 182.523438 140.722656 183.332031 C 138.242188 184.410156 137.859375 184.355469 137.535156 183.007812 C 137.320312 182.148438 137.644531 181.710938 139.214844 181.011719 C 140.617188 180.355469 141.160156 179.816406 141.050781 179.171875 C 140.886719 178.308594 140.722656 178.308594 138.671875 179.117188 C 136.835938 179.878906 136.457031 179.878906 136.027344 179.226562 C 135.214844 177.933594 135.488281 177.605469 137.699219 176.738281 C 139.703125 175.9375 140.453125 174.851562 139.480469 174.261719 C 139.214844 174.09375 137.859375 174.472656 136.351562 175.0625 Z M 136.351562 175.0625 "/>
<path style=" stroke:none;fill-rule:nonzero;fill:rgb(0%,0%,0%);fill-opacity:1;" d="M 123.769531 179.117188 C 121.125 179.714844 120.417969 180.089844 120.53125 180.792969 C 120.636719 181.492188 121.175781 181.660156 122.414062 181.550781 L 124.144531 181.386719 L 125.066406 185.703125 C 125.816406 189.273438 126.203125 190.082031 127.011719 190.082031 C 128.199219 190.082031 128.199219 189.273438 127.167969 184.949219 C 126.144531 180.628906 126.144531 180.519531 127.710938 180.144531 C 129.21875 179.765625 129.546875 178.199219 128.148438 178.257812 C 127.601562 178.257812 125.65625 178.632812 123.769531 179.117188 Z M 123.769531 179.117188 "/>
<path style=" stroke:none;fill-rule:nonzero;fill:rgb(0%,0%,0%);fill-opacity:1;" d="M 87.3125 180.355469 C 83.644531 184.683594 85.429688 190.1875 90.449219 190.1875 C 92.71875 190.1875 93.585938 189.589844 94.714844 187.164062 C 96.070312 184.296875 95.851562 182.148438 94.011719 180.304688 C 91.800781 178.144531 89.15625 178.144531 87.3125 180.355469 Z M 92.878906 181.925781 C 93.53125 183.21875 93.042969 186.242188 91.90625 187.492188 C 90.019531 189.699219 87.101562 187.648438 87.75 184.570312 C 87.964844 183.601562 88.339844 182.351562 88.664062 181.8125 C 89.320312 180.519531 92.128906 180.578125 92.878906 181.925781 Z M 92.878906 181.925781 "/>
<path style=" stroke:none;fill-rule:nonzero;fill:rgb(0%,0%,0%);fill-opacity:1;" d="M 100.710938 185.382812 C 100.28125 190.671875 100.4375 191.972656 101.523438 191.972656 C 102.0625 191.972656 102.382812 191.269531 102.488281 189.648438 L 102.65625 187.378906 L 105.089844 187.378906 C 106.761719 187.378906 107.460938 187.164062 107.460938 186.628906 C 107.460938 185.757812 106.328125 185.222656 104.433594 185.222656 C 103.410156 185.222656 103.144531 184.949219 103.144531 183.820312 C 103.144531 182.523438 103.246094 182.464844 105.566406 182.839844 C 107.785156 183.164062 108 183.113281 108 182.035156 C 108 181.011719 107.675781 180.898438 104.546875 180.898438 L 101.085938 180.898438 Z M 100.710938 185.382812 "/>
</g>
</svg>
